<svg xmlns="http://www.w3.org/2000/svg" xmlns:xlink="http://www.w3.org/1999/xlink" viewBox="0 0 499.31 499.95"><defs><style>.cls-1{isolation:isolate;}.cls-2{fill:#efecdf;}.cls-3{fill:#00679b;}.cls-4{fill:#59464c;}.cls-5{fill:#dc3a19;}.cls-6{fill:#ff9982;}.cls-7{fill:#ff5027;}.cls-8{fill:#ffd500;}.cls-9{fill:#bf9f00;opacity:0.5;}.cls-10{fill:#ffe566;}.cls-11{fill:#bfbfbf;}.cls-12{fill:#ededed;}.cls-13{fill:#d38c0d;}.cls-14{fill:#feab02;}.cls-15{fill:#8c8c8c;}.cls-16{fill:#f9512d;}.cls-17{fill:#aa3724;}.cls-18{fill:#c1841a;}.cls-19{fill:url(#radial-gradient);}.cls-20,.cls-21,.cls-71{fill:#fff;}.cls-21{opacity:0.75;}.cls-22{fill:#c3403b;}.cls-23{fill:#7f2222;}.cls-24{fill:#ce8d1b;}.cls-25{fill:#dd9b26;}.cls-26{fill:#b27812;}.cls-27{fill:#916009;}.cls-28{fill:#3f3f3f;}.cls-28,.cls-71{opacity:0.4;}.cls-28,.cls-78,.cls-82,.cls-83,.cls-92,.cls-97{mix-blend-mode:multiply;}.cls-29{fill:#585356;}.cls-30{fill:#8d888b;}.cls-31{fill:#a9a4a7;}.cls-32{fill:#b57533;}.cls-33{fill:#3d3e55;}.cls-34{fill:#5b5d7c;}.cls-35{fill:#242533;}.cls-36{fill:#8c511c;}.cls-37{fill:#282828;}.cls-38{fill:#494949;}.cls-39{fill:url(#linear-gradient);}.cls-40{fill:url(#linear-gradient-2);}.cls-41{fill:url(#linear-gradient-3);}.cls-42{fill:url(#linear-gradient-4);}.cls-43{fill:#773701;}.cls-44{fill:url(#linear-gradient-5);}.cls-45{fill:url(#linear-gradient-6);}.cls-46{fill:url(#linear-gradient-7);}.cls-47{fill:url(#linear-gradient-8);}.cls-48{fill:#e2b200;}.cls-49{fill:#fed833;}.cls-50{fill:#ffe380;}.cls-51{fill:url(#radial-gradient-2);}.cls-52{fill:url(#radial-gradient-3);}.cls-53{fill:url(#radial-gradient-4);}.cls-54{fill:url(#radial-gradient-5);}.cls-55{fill:url(#linear-gradient-9);}.cls-56{fill:url(#linear-gradient-10);}.cls-57{fill:url(#linear-gradient-11);}.cls-58{fill:url(#radial-gradient-6);}.cls-59{fill:url(#radial-gradient-7);}.cls-60{fill:url(#radial-gradient-8);}.cls-61{fill:url(#radial-gradient-9);}.cls-62{fill:url(#radial-gradient-10);}.cls-63{fill:url(#radial-gradient-11);}.cls-64{fill:url(#radial-gradient-12);}.cls-65{fill:url(#radial-gradient-13);}.cls-66{fill:url(#radial-gradient-14);}.cls-67{fill:url(#radial-gradient-15);}.cls-68{fill:url(#radial-gradient-16);}.cls-69{fill:url(#radial-gradient-17);}.cls-70{fill:#191919;}.cls-71{mix-blend-mode:screen;}.cls-72{fill:url(#linear-gradient-12);}.cls-73{fill:url(#linear-gradient-13);}.cls-74{fill:#e9a828;}.cls-75{fill:#e7c980;}.cls-76{fill:#b09355;}.cls-77{fill:#826b3d;}.cls-78{fill:#1c1c1c;}.cls-78,.cls-82{opacity:0.12;}.cls-79{fill:#f45506;}.cls-80{fill:#b74005;}.cls-81{fill:#5a87c4;}.cls-82,.cls-83,.cls-85{fill:#3b383c;}.cls-83,.cls-92{opacity:0.24;}.cls-84{fill:#232123;}.cls-86{fill:#645e66;}.cls-87{fill:#f8f8f8;}.cls-88{fill:#a32c09;}.cls-89{fill:#8035d8;}.cls-90{fill:#541da3;}.cls-91{fill:#fcfcfc;}.cls-93{fill:#a29eef;}.cls-94,.cls-97{fill:#525252;}.cls-95{fill:#bc5bc1;}.cls-96{fill:#d6b84b;}.cls-97{opacity:0.38;}.cls-98{fill:#2a2322;}.cls-99{fill:#555251;}.cls-100{fill:#ead68f;}.cls-101{fill:#86418a;}.cls-102{fill:#eaddb0;}.cls-103{fill:#8f3596;}.cls-104{fill:#2d2d2d;}.cls-105{fill:#a6dae8;}.cls-106{fill:#1e1e1e;}.cls-107{fill:#f4d540;}</style><radialGradient id="radial-gradient" cx="249.16" cy="39.25" r="23.44" gradientTransform="translate(500.94 501.26) rotate(180)" gradientUnits="userSpaceOnUse"><stop offset="0" stop-color="#5a87c4"/><stop offset="0.37" stop-color="#5985c2"/><stop offset="0.58" stop-color="#5780b9"/><stop offset="0.76" stop-color="#5278ab"/><stop offset="0.91" stop-color="#4b6b98"/><stop offset="1" stop-color="#466187"/></radialGradient><linearGradient id="linear-gradient" x1="-318.6" y1="230.96" x2="-317.94" y2="270.83" gradientTransform="matrix(-0.81, -0.58, -0.58, 0.81, 241.38, -312.15)" gradientUnits="userSpaceOnUse"><stop offset="0.08" stop-color="#7c4a00"/><stop offset="1" stop-color="#e2861e"/></linearGradient><linearGradient id="linear-gradient-2" x1="-345.12" y1="240.78" x2="-344.14" y2="257.25" xlink:href="#linear-gradient"/><linearGradient id="linear-gradient-3" x1="-319.71" y1="249.08" x2="-315.75" y2="203.93" gradientTransform="matrix(-0.81, -0.58, -0.58, 0.81, 243.01, -310.83)" xlink:href="#linear-gradient"/><linearGradient id="linear-gradient-4" x1="-344.26" y1="250.41" x2="-336.02" y2="202.96" gradientTransform="matrix(-0.81, -0.58, -0.58, 0.81, 243.01, -310.83)" xlink:href="#linear-gradient"/><linearGradient id="linear-gradient-5" x1="-319.57" y1="230.51" x2="-317.76" y2="263.3" gradientTransform="matrix(-0.81, -0.58, -0.58, 0.81, 243.01, -310.83)" gradientUnits="userSpaceOnUse"><stop offset="0.34" stop-color="#e2af1e"/><stop offset="1" stop-color="#c2721e"/></linearGradient><linearGradient id="linear-gradient-6" x1="-336.45" y1="226.02" x2="-335.79" y2="261.28" gradientTransform="matrix(-0.81, -0.58, -0.58, 0.81, 243.01, -310.83)" gradientUnits="userSpaceOnUse"><stop offset="0.2" stop-color="#fed85c"/><stop offset="1" stop-color="#e2861e"/></linearGradient><linearGradient id="linear-gradient-7" x1="-309.49" y1="240.95" x2="-309.49" y2="255.13" gradientTransform="matrix(0, -1, -1, 0, 633.44, -225)" xlink:href="#linear-gradient-5"/><linearGradient id="linear-gradient-8" x1="-310.97" y1="239.44" x2="-309.82" y2="261.35" gradientTransform="matrix(0, -1, -1, 0, 634.34, -225.42)" xlink:href="#linear-gradient-6"/><radialGradient id="radial-gradient-2" cx="-350.73" cy="261.89" r="3.13" gradientTransform="matrix(0, -1, -1, 0, 639.06, -243.88)" gradientUnits="userSpaceOnUse"><stop offset="0" stop-color="#fff"/><stop offset="0.41" stop-color="#e4b687"/><stop offset="0.72" stop-color="#a79284"/><stop offset="1" stop-color="#e3b381"/></radialGradient><radialGradient id="radial-gradient-3" cx="-348.76" cy="263.87" r="3.13" gradientTransform="matrix(0, -1, -1, 0, 638.34, -241.39)" xlink:href="#radial-gradient-2"/><radialGradient id="radial-gradient-4" cx="-348.1" cy="259.92" r="3.13" gradientTransform="matrix(0, -1, -1, 0, 636.14, -244.33)" xlink:href="#radial-gradient-2"/><radialGradient id="radial-gradient-5" cx="-346.12" cy="263.87" r="3.13" gradientTransform="matrix(0, -1, -1, 0, 636.19, -240.29)" xlink:href="#radial-gradient-2"/><linearGradient id="linear-gradient-9" x1="-335.5" y1="248.29" x2="-335.5" y2="254.22" gradientTransform="matrix(-0.81, -0.58, -0.58, 0.81, 243.01, -310.83)" gradientUnits="userSpaceOnUse"><stop offset="0.34" stop-color="#e7ab00"/><stop offset="1" stop-color="#c76600"/></linearGradient><linearGradient id="linear-gradient-10" x1="-339.31" y1="258.48" x2="-332.8" y2="258.48" gradientTransform="matrix(0, -1, -1, 0, 625.45, -241.42)" xlink:href="#linear-gradient-5"/><linearGradient id="linear-gradient-11" x1="-338.48" y1="258.92" x2="-333.63" y2="258.92" gradientTransform="matrix(0, -1, -1, 0, 625.66, -241.04)" gradientUnits="userSpaceOnUse"><stop offset="0.08" stop-color="#db3737"/><stop offset="0.99" stop-color="#a20c00"/></linearGradient><radialGradient id="radial-gradient-6" cx="-328.98" cy="250.03" r="3.13" gradientTransform="matrix(0, -1, -1, 0, 616.35, -244.4)" xlink:href="#radial-gradient-2"/><radialGradient id="radial-gradient-7" cx="-328.32" cy="252.67" r="3.13" gradientTransform="matrix(0, -1, -1, 0, 616.98, -241.93)" xlink:href="#radial-gradient-2"/><radialGradient id="radial-gradient-8" cx="-327.67" cy="255.96" r="3.13" gradientTransform="matrix(0, -1, -1, 0, 617.82, -238.98)" xlink:href="#radial-gradient-2"/><radialGradient id="radial-gradient-9" cx="-328.98" cy="258.6" r="3.13" gradientTransform="matrix(0, -1, -1, 0, 619.95, -237.42)" xlink:href="#radial-gradient-2"/><radialGradient id="radial-gradient-10" cx="-328.98" cy="261.23" r="3.13" gradientTransform="matrix(0, -1, -1, 0, 621.11, -235.23)" xlink:href="#radial-gradient-2"/><radialGradient id="radial-gradient-11" cx="-328.33" cy="263.87" r="3.13" gradientTransform="matrix(0, -1, -1, 0, 621.63, -232.85)" xlink:href="#radial-gradient-2"/><radialGradient id="radial-gradient-12" cx="-326.35" cy="265.85" r="3.13" gradientTransform="matrix(0, -1, -1, 0, 620.91, -230.36)" xlink:href="#radial-gradient-2"/><radialGradient id="radial-gradient-13" cx="-323.05" cy="266.51" r="3.13" gradientTransform="matrix(0, -1, -1, 0, 618.45, -228.49)" xlink:href="#radial-gradient-2"/><radialGradient id="radial-gradient-14" cx="-320.42" cy="265.19" r="3.13" gradientTransform="matrix(0, -1, -1, 0, 615.79, -228.41)" xlink:href="#radial-gradient-2"/><radialGradient id="radial-gradient-15" cx="-321.08" cy="262.55" r="3.13" gradientTransform="matrix(0, -1, -1, 0, 615.17, -230.88)" xlink:href="#radial-gradient-2"/><radialGradient id="radial-gradient-16" cx="-322.39" cy="259.92" r="3.13" gradientTransform="matrix(0, -1, -1, 0, 615.13, -233.58)" xlink:href="#radial-gradient-2"/><radialGradient id="radial-gradient-17" cx="-325.03" cy="257.94" r="3.13" gradientTransform="matrix(0, -1, -1, 0, 616.46, -236.3)" xlink:href="#radial-gradient-2"/><linearGradient id="linear-gradient-12" x1="834.13" y1="680.04" x2="846.23" y2="713.39" gradientTransform="translate(852.22 -855.84) rotate(72)" gradientUnits="userSpaceOnUse"><stop offset="0" stop-color="#be7239"/><stop offset="0.15" stop-color="#995a2c"/><stop offset="0.34" stop-color="#6e401d"/><stop offset="0.52" stop-color="#4d2b11"/><stop offset="0.7" stop-color="#351c09"/><stop offset="0.86" stop-color="#271304"/><stop offset="1" stop-color="#221002"/></linearGradient><linearGradient id="linear-gradient-13" x1="842.37" y1="678.23" x2="845.68" y2="685.67" gradientTransform="translate(1146.22 -686.73) rotate(90)" gradientUnits="userSpaceOnUse"><stop offset="0.16" stop-color="#be7239"/><stop offset="1" stop-color="#221002"/></linearGradient></defs><title>wheel</title><g class="cls-1"><g id="wheel"><path class="cls-2" d="M135.29,30.93l46.33,63a3.53,3.53,0,0,1-.77,4.92l-55.06,40.21a3.53,3.53,0,0,1-4.92-.77l-46.33-63a3.53,3.53,0,0,1,.77-4.92l55.06-40.21A3.53,3.53,0,0,1,135.29,30.93Z" transform="translate(-1.64 -1.31)"/><path class="cls-2" d="M27.92,141.2,102.45,165a3.53,3.53,0,0,1,2.27,4.44L83.81,234.29a3.53,3.53,0,0,1-4.44,2.27L4.84,212.8a3.53,3.53,0,0,1-2.27-4.44l20.91-64.89A3.53,3.53,0,0,1,27.92,141.2Z" transform="translate(-1.64 -1.31)"/><path class="cls-2" d="M5.87,293.52l74.26-24.59a3.53,3.53,0,0,1,4.45,2.25L105.8,336a3.53,3.53,0,0,1-2.25,4.45L29.29,365a3.53,3.53,0,0,1-4.45-2.25L3.62,298A3.53,3.53,0,0,1,5.87,293.52Z" transform="translate(-1.64 -1.31)"/><path class="cls-2" d="M77.56,429.71l45.63-63.54a3.53,3.53,0,0,1,4.92-.79l55.25,39.94a3.53,3.53,0,0,1,.79,4.92l-45.63,63.54a3.53,3.53,0,0,1-4.92.79L78.35,434.63A3.53,3.53,0,0,1,77.56,429.71Z" transform="translate(-1.64 -1.31)"/><path class="cls-2" d="M215.61,497.75l-.44-78.23a3.53,3.53,0,0,1,3.52-3.53l68.18-.16a3.53,3.53,0,0,1,3.53,3.52l.44,78.23a3.53,3.53,0,0,1-3.52,3.53l-68.18.16A3.53,3.53,0,0,1,215.61,497.75Z" transform="translate(-1.64 -1.31)"/><path class="cls-2" d="M367.29,471.65l-46.33-63a3.53,3.53,0,0,1,.77-4.92l55.06-40.21a3.53,3.53,0,0,1,4.92.77l46.33,63a3.53,3.53,0,0,1-.77,4.92l-55.06,40.21A3.53,3.53,0,0,1,367.29,471.65Z" transform="translate(-1.64 -1.31)"/><path class="cls-2" d="M474.66,361.38l-74.53-23.76a3.53,3.53,0,0,1-2.27-4.44l20.91-64.89a3.53,3.53,0,0,1,4.44-2.27l74.53,23.76a3.53,3.53,0,0,1,2.27,4.44L479.1,359.11A3.53,3.53,0,0,1,474.66,361.38Z" transform="translate(-1.64 -1.31)"/><path class="cls-2" d="M496.71,209.06l-74.26,24.59A3.53,3.53,0,0,1,418,231.4L396.78,166.6a3.53,3.53,0,0,1,2.25-4.45l74.26-24.59a3.53,3.53,0,0,1,4.45,2.25L499,204.61A3.53,3.53,0,0,1,496.71,209.06Z" transform="translate(-1.64 -1.31)"/><path class="cls-2" d="M425,72.87l-45.63,63.54a3.53,3.53,0,0,1-4.92.79L319.21,97.26a3.53,3.53,0,0,1-.79-4.92L364,28.8A3.53,3.53,0,0,1,369,28l55.25,39.94A3.53,3.53,0,0,1,425,72.87Z" transform="translate(-1.64 -1.31)"/><path class="cls-2" d="M287,4.83l.44,78.23a3.53,3.53,0,0,1-3.52,3.53l-68.18.16a3.53,3.53,0,0,1-3.53-3.52L211.74,5a3.53,3.53,0,0,1,3.52-3.53l68.18-.16A3.53,3.53,0,0,1,287,4.83Z" transform="translate(-1.64 -1.31)"/><rect class="cls-3" x="142.31" y="188.21" width="56.53" height="11.78" rx="2.35" ry="2.35" transform="translate(145.03 -64.5) rotate(36)"/><rect class="cls-4" x="178.51" y="212.16" width="56.53" height="16.49" rx="4.11" ry="4.11" transform="translate(167.4 -80.76) rotate(36)"/><rect class="cls-4" x="128.97" y="176.17" width="56.53" height="16.49" rx="4.11" ry="4.11" transform="translate(136.79 -58.51) rotate(36)"/><rect class="cls-3" x="50.85" y="121.76" width="56.53" height="11.78" rx="2.35" ry="2.35" transform="translate(88.5 -23.44) rotate(36)"/><rect class="cls-3" x="81.33" y="143.91" width="56.53" height="11.78" rx="2.35" ry="2.35" transform="translate(107.35 -37.13) rotate(36)"/><rect class="cls-4" x="84.71" y="131.17" width="21.2" height="16.49" rx="4.11" ry="4.11" transform="translate(98.51 -30.71) rotate(36)"/><rect class="cls-4" x="103.76" y="145.02" width="21.2" height="16.49" rx="4.11" ry="4.11" transform="translate(110.29 -39.26) rotate(36)"/><rect class="cls-4" x="44.57" y="109.72" width="42.39" height="16.49" rx="4.11" ry="4.11" transform="translate(80.26 -17.45) rotate(36)"/><rect class="cls-3" x="303.75" y="302.59" width="56.53" height="11.78" rx="2.35" ry="2.35" transform="translate(417.65 751.88) rotate(-144)"/><rect class="cls-4" x="267.54" y="273.93" width="56.53" height="16.49" rx="4.11" ry="4.11" transform="translate(367.62 683.02) rotate(-144)"/><rect class="cls-4" x="317.08" y="309.93" width="56.53" height="16.49" rx="4.11" ry="4.11" transform="translate(436.09 777.25) rotate(-144)"/><rect class="cls-3" x="395.21" y="369.04" width="56.53" height="11.78" rx="2.35" ry="2.35" transform="translate(544.05 925.85) rotate(-144)"/><rect class="cls-3" x="364.72" y="346.89" width="56.53" height="11.78" rx="2.35" ry="2.35" transform="translate(501.92 867.86) rotate(-144)"/><rect class="cls-4" x="396.67" y="354.92" width="21.2" height="16.49" rx="4.11" ry="4.11" transform="translate(521.67 895.04) rotate(-144)"/><rect class="cls-4" x="377.62" y="341.08" width="21.2" height="16.49" rx="4.11" ry="4.11" transform="translate(495.33 858.8) rotate(-144)"/><rect class="cls-4" x="415.61" y="376.38" width="42.39" height="16.49" rx="4.11" ry="4.11" transform="translate(562.48 951.22) rotate(-144)"/><rect class="cls-3" x="122.47" y="245.26" width="56.53" height="11.78" rx="2.35" ry="2.35"/><rect class="cls-4" x="167.22" y="242.91" width="56.53" height="16.49" rx="4.11" ry="4.11"/><rect class="cls-4" x="105.99" y="242.91" width="56.53" height="16.49" rx="4.11" ry="4.11"/><rect class="cls-3" x="9.42" y="245.26" width="56.53" height="11.78" rx="2.35" ry="2.35"/><rect class="cls-3" x="47.1" y="245.26" width="56.53" height="11.78" rx="2.35" ry="2.35"/><rect class="cls-4" x="47.1" y="242.91" width="21.2" height="16.49" rx="4.11" ry="4.11"/><rect class="cls-4" x="70.66" y="242.91" width="21.2" height="16.49" rx="4.11" ry="4.11"/><rect class="cls-4" y="242.91" width="42.39" height="16.49" rx="4.11" ry="4.11"/><rect class="cls-3" x="321.95" y="244.22" width="56.53" height="11.78" rx="2.35" ry="2.35" transform="translate(698.78 498.91) rotate(-180)"/><rect class="cls-4" x="277.2" y="241.87" width="56.53" height="16.49" rx="4.11" ry="4.11" transform="translate(609.28 498.91) rotate(180)"/><rect class="cls-4" x="338.43" y="241.87" width="56.53" height="16.49" rx="4.11" ry="4.11" transform="translate(731.76 498.91) rotate(180)"/><rect class="cls-3" x="435" y="244.22" width="56.53" height="11.78" rx="2.35" ry="2.35" transform="translate(924.88 498.91) rotate(-180)"/><rect class="cls-3" x="397.31" y="244.22" width="56.53" height="11.78" rx="2.35" ry="2.35" transform="translate(849.52 498.91) rotate(-180)"/><rect class="cls-4" x="432.64" y="241.87" width="21.2" height="16.49" rx="4.11" ry="4.11" transform="translate(884.85 498.91) rotate(-180)"/><rect class="cls-4" x="409.09" y="241.87" width="21.2" height="16.49" rx="4.11" ry="4.11" transform="translate(837.74 498.91) rotate(-180)"/><rect class="cls-4" x="458.55" y="241.87" width="42.39" height="16.49" rx="4.11" ry="4.11" transform="translate(957.86 498.91) rotate(180)"/><rect class="cls-3" x="143.69" y="304.5" width="56.53" height="11.78" rx="2.35" ry="2.35" transform="translate(-151.24 159.04) rotate(-36)"/><rect class="cls-4" x="179.89" y="275.84" width="56.53" height="16.49" rx="4.11" ry="4.11" transform="translate(-128.86 175.29) rotate(-36)"/><rect class="cls-4" x="130.35" y="311.83" width="56.53" height="16.49" rx="4.11" ry="4.11" transform="translate(-159.48 153.05) rotate(-36)"/><rect class="cls-3" x="52.23" y="370.95" width="56.53" height="11.78" rx="2.35" ry="2.35" transform="matrix(0.81, -0.59, 0.59, 0.81, -207.76, 117.97)"/><rect class="cls-3" x="82.72" y="348.8" width="56.53" height="11.78" rx="2.35" ry="2.35" transform="translate(-188.92 131.66) rotate(-36)"/><rect class="cls-4" x="86.09" y="356.82" width="21.2" height="16.49" rx="4.11" ry="4.11" transform="translate(-197.75 125.24) rotate(-36)"/><rect class="cls-4" x="105.15" y="342.98" width="21.2" height="16.49" rx="4.11" ry="4.11" transform="translate(-185.98 133.8) rotate(-36)"/><rect class="cls-4" x="45.96" y="378.28" width="42.39" height="16.49" rx="4.11" ry="4.11" transform="translate(-216 111.98) rotate(-36)"/><rect class="cls-3" x="302.36" y="186.31" width="56.53" height="11.78" rx="2.35" ry="2.35" transform="translate(709.44 152.03) rotate(144)"/><rect class="cls-4" x="266.16" y="210.25" width="56.53" height="16.49" rx="4.11" ry="4.11" transform="translate(659.41 220.89) rotate(144)"/><rect class="cls-4" x="315.7" y="174.26" width="56.53" height="16.49" rx="4.11" ry="4.11" transform="translate(727.87 126.66) rotate(144)"/><rect class="cls-3" x="393.82" y="119.86" width="56.53" height="11.78" rx="2.35" ry="2.35" transform="translate(835.83 -21.94) rotate(144)"/><rect class="cls-3" x="363.34" y="142.01" width="56.53" height="11.78" rx="2.35" ry="2.35" transform="translate(793.7 36.05) rotate(144)"/><rect class="cls-4" x="395.29" y="129.27" width="21.2" height="16.49" rx="4.11" ry="4.11" transform="translate(813.45 8.87) rotate(144)"/><rect class="cls-4" x="376.24" y="143.11" width="21.2" height="16.49" rx="4.11" ry="4.11" transform="translate(787.12 45.11) rotate(144)"/><rect class="cls-4" x="414.23" y="107.81" width="42.39" height="16.49" rx="4.11" ry="4.11" transform="translate(854.27 -47.31) rotate(144)"/><rect class="cls-3" x="193.58" y="339.84" width="56.53" height="11.78" rx="2.35" ry="2.35" transform="translate(-177.16 448.56) rotate(-72)"/><rect class="cls-4" x="207.41" y="294.93" width="56.53" height="16.49" rx="4.11" ry="4.11" transform="translate(-127.13 432.31) rotate(-72)"/><rect class="cls-4" x="188.48" y="353.17" width="56.53" height="16.49" rx="4.11" ry="4.11" transform="translate(-195.59 454.55) rotate(-72)"/><rect class="cls-3" x="158.64" y="447.36" width="56.53" height="11.78" rx="2.35" ry="2.35" transform="translate(-303.55 489.63) rotate(-72)"/><rect class="cls-3" x="170.29" y="411.52" width="56.53" height="11.78" rx="2.35" ry="2.35" transform="translate(-261.42 475.94) rotate(-72)"/><rect class="cls-4" x="182.49" y="425.97" width="21.2" height="16.49" rx="4.11" ry="4.11" transform="translate(-281.17 482.36) rotate(-72)"/><rect class="cls-4" x="189.77" y="403.57" width="21.2" height="16.49" rx="4.11" ry="4.11" transform="translate(-254.84 473.8) rotate(-72)"/><rect class="cls-4" x="160.62" y="460.69" width="42.39" height="16.49" rx="4.11" ry="4.11" transform="translate(-321.98 495.62) rotate(-72)"/><rect class="cls-3" x="252.47" y="150.96" width="56.53" height="11.78" rx="2.35" ry="2.35" transform="translate(515.03 -63) rotate(108)"/><rect class="cls-4" x="238.65" y="191.16" width="56.53" height="16.49" rx="4.11" ry="4.11" transform="translate(537.4 5.87) rotate(108)"/><rect class="cls-4" x="257.57" y="132.92" width="56.53" height="16.49" rx="4.11" ry="4.11" transform="translate(506.78 -88.37) rotate(108)"/><rect class="cls-3" x="287.41" y="43.44" width="56.53" height="11.78" rx="2.35" ry="2.35" transform="translate(458.5 -236.96) rotate(108)"/><rect class="cls-3" x="275.76" y="79.28" width="56.53" height="11.78" rx="2.35" ry="2.35" transform="translate(477.34 -178.97) rotate(108)"/><rect class="cls-4" x="298.89" y="60.13" width="21.2" height="16.49" rx="4.11" ry="4.11" transform="translate(468.51 -206.16) rotate(108)"/><rect class="cls-4" x="291.61" y="82.53" width="21.2" height="16.49" rx="4.11" ry="4.11" transform="translate(480.29 -169.91) rotate(108)"/><rect class="cls-4" x="299.57" y="25.41" width="42.39" height="16.49" rx="4.11" ry="4.11" transform="translate(450.26 -262.33) rotate(108)"/><rect class="cls-3" x="254.71" y="339.12" width="56.53" height="11.78" rx="2.35" ry="2.35" transform="translate(40.67 719.43) rotate(-108)"/><rect class="cls-4" x="240.89" y="294.2" width="56.53" height="16.49" rx="4.11" ry="4.11" transform="translate(63.04 650.57) rotate(-108)"/><rect class="cls-4" x="259.81" y="352.44" width="56.53" height="16.49" rx="4.11" ry="4.11" transform="translate(32.43 744.8) rotate(-108)"/><rect class="cls-3" x="289.65" y="446.63" width="56.53" height="11.78" rx="2.35" ry="2.35" transform="translate(-15.86 893.4) rotate(-108)"/><rect class="cls-3" x="278" y="410.79" width="56.53" height="11.78" rx="2.35" ry="2.35" transform="translate(2.98 835.41) rotate(-108)"/><rect class="cls-4" x="301.13" y="425.24" width="21.2" height="16.49" rx="4.11" ry="4.11" transform="translate(-5.85 862.59) rotate(-108)"/><rect class="cls-4" x="293.85" y="402.84" width="21.2" height="16.49" rx="4.11" ry="4.11" transform="translate(5.93 826.35) rotate(-108)"/><rect class="cls-4" x="301.81" y="459.96" width="42.39" height="16.49" rx="4.11" ry="4.11" transform="translate(-24.1 918.77) rotate(-108)"/><rect class="cls-3" x="191.34" y="151.69" width="56.53" height="11.78" rx="2.35" ry="2.35" transform="translate(299.97 -101.29) rotate(72)"/><rect class="cls-4" x="205.17" y="191.89" width="56.53" height="16.49" rx="4.11" ry="4.11" transform="translate(350 -85.03) rotate(72)"/><rect class="cls-4" x="186.24" y="133.65" width="56.53" height="16.49" rx="4.11" ry="4.11" transform="translate(281.54 -107.28) rotate(72)"/><rect class="cls-3" x="156.4" y="44.17" width="56.53" height="11.78" rx="2.35" ry="2.35" transform="translate(173.57 -142.35) rotate(72)"/><rect class="cls-3" x="168.05" y="80.01" width="56.53" height="11.78" rx="2.35" ry="2.35" transform="translate(215.71 -128.67) rotate(72)"/><rect class="cls-4" x="180.26" y="60.85" width="21.2" height="16.49" rx="4.11" ry="4.11" transform="translate(195.96 -135.08) rotate(72)"/><rect class="cls-4" x="187.53" y="83.25" width="21.2" height="16.49" rx="4.11" ry="4.11" transform="translate(222.29 -126.53) rotate(72)"/><rect class="cls-4" x="158.38" y="26.13" width="42.39" height="16.49" rx="4.11" ry="4.11" transform="translate(155.14 -148.34) rotate(72)"/><circle class="cls-3" cx="251.29" cy="251.29" r="40.13" transform="translate(-101.35 305.57) rotate(-54)"/><path class="cls-5" d="M355.92,107.28a178,178,0,1,0,39.38,248.63A178,178,0,0,0,355.92,107.28ZM171.28,361.41A136.12,136.12,0,1,1,361.41,331.3,136.12,136.12,0,0,1,171.28,361.41Z" transform="translate(-1.64 -1.31)"/><path class="cls-6" d="M342.84,125.29a155.75,155.75,0,1,0,34.46,217.55A155.75,155.75,0,0,0,342.84,125.29ZM181.28,347.65A119.1,119.1,0,1,1,347.65,321.3,119.1,119.1,0,0,1,181.28,347.65Z" transform="translate(-1.64 -1.31)"/><path class="cls-7" d="M350.1,115.28A168.11,168.11,0,1,0,387.29,350.1,168.11,168.11,0,0,0,350.1,115.28Zm-174.38,240a128.56,128.56,0,1,1,179.57-28.44A128.56,128.56,0,0,1,175.73,355.29Z" transform="translate(-1.64 -1.31)"/><circle class="cls-8" cx="251.29" cy="251.29" r="28.09" transform="translate(-101.35 305.57) rotate(-54)"/><path class="cls-9" d="M257.77,228.71a31.91,31.91,0,0,1,3.74,48.72,28.08,28.08,0,0,0-14.76-53.86A32,32,0,0,1,257.77,228.71Z" transform="translate(-1.64 -1.31)"/><path class="cls-10" d="M238.63,265.44a22.58,22.58,0,0,1,7.31-33.8,19.87,19.87,0,0,0-.88,39.52A22.63,22.63,0,0,1,238.63,265.44Z" transform="translate(-1.64 -1.31)"/><circle class="cls-8" cx="296.33" cy="107.37" r="4.94" transform="translate(103.72 356.79) rotate(-72.62)"/><path class="cls-9" d="M300.46,107.18a5.62,5.62,0,0,1-7.92,3.36,4.94,4.94,0,0,0,8.15-5.49A5.63,5.63,0,0,1,300.46,107.18Z" transform="translate(-1.64 -1.31)"/><path class="cls-10" d="M293.26,106.05a4,4,0,0,1,6-.68,3.5,3.5,0,0,0-6.64,2.07A4,4,0,0,1,293.26,106.05Z" transform="translate(-1.64 -1.31)"/><circle class="cls-8" cx="203.13" cy="108.38" r="4.94" transform="translate(-25.61 69.23) rotate(-18.62)"/><path class="cls-9" d="M206.36,105.8a5.62,5.62,0,0,1-4.43,7.37,4.94,4.94,0,0,0,3.37-9.23A5.63,5.63,0,0,1,206.36,105.8Z" transform="translate(-1.64 -1.31)"/><path class="cls-10" d="M199.87,109.12a4,4,0,0,1,4.49-4.11,3.5,3.5,0,0,0-4.15,5.58A4,4,0,0,1,199.87,109.12Z" transform="translate(-1.64 -1.31)"/><circle class="cls-8" cx="128.33" cy="163.98" r="4.94" transform="translate(-81.31 172.36) rotate(-54.62)"/><path class="cls-9" d="M129.43,160a5.62,5.62,0,0,1,.75,8.57,4.94,4.94,0,0,0-2.7-9.45A5.63,5.63,0,0,1,129.43,160Z" transform="translate(-1.64 -1.31)"/><path class="cls-10" d="M126.13,166.49a4,4,0,0,1,1.22-6,3.5,3.5,0,0,0-.08,7A4,4,0,0,1,126.13,166.49Z" transform="translate(-1.64 -1.31)"/><circle class="cls-8" cx="100.49" cy="252.93" r="4.94" transform="translate(-4.38 -0.21) rotate(-0.62)"/><path class="cls-9" d="M99,249.06a5.62,5.62,0,0,1,5.64,6.49,4.94,4.94,0,0,0-7.74-6.06A5.63,5.63,0,0,1,99,249.06Z" transform="translate(-1.64 -1.31)"/><path class="cls-10" d="M100.19,256.26a4,4,0,0,1-2.52-5.54,3.5,3.5,0,0,0,4,5.67A4,4,0,0,1,100.19,256.26Z" transform="translate(-1.64 -1.31)"/><circle class="cls-8" cx="130.26" cy="341.25" r="4.94" transform="translate(-179.49 143.76) rotate(-36.62)"/><path class="cls-9" d="M126.8,339a5.62,5.62,0,0,1,8.38,1.93,4.94,4.94,0,0,0-9.82-.35A5.63,5.63,0,0,1,126.8,339Z" transform="translate(-1.64 -1.31)"/><path class="cls-10" d="M132,344.12a4,4,0,0,1-5.29-3,3.5,3.5,0,0,0,6.59,2.22A4,4,0,0,1,132,344.12Z" transform="translate(-1.64 -1.31)"/><circle class="cls-8" cx="206.25" cy="395.21" r="4.94" transform="translate(-234.16 472.7) rotate(-72.62)"/><path class="cls-9" d="M202.12,395.4A5.62,5.62,0,0,1,210,392a4.94,4.94,0,0,0-8.15,5.49A5.63,5.63,0,0,1,202.12,395.4Z" transform="translate(-1.64 -1.31)"/><path class="cls-10" d="M209.32,396.53a4,4,0,0,1-6,.68,3.5,3.5,0,0,0,6.64-2.07A4,4,0,0,1,209.32,396.53Z" transform="translate(-1.64 -1.31)"/><circle class="cls-8" cx="299.45" cy="394.2" r="4.94" transform="translate(-111.84 114.95) rotate(-18.62)"/><path class="cls-9" d="M296.22,396.78a5.62,5.62,0,0,1,4.43-7.37,4.94,4.94,0,0,0-3.37,9.23A5.63,5.63,0,0,1,296.22,396.78Z" transform="translate(-1.64 -1.31)"/><path class="cls-10" d="M302.71,393.46a4,4,0,0,1-4.49,4.11,3.5,3.5,0,0,0,4.15-5.58A4,4,0,0,1,302.71,393.46Z" transform="translate(-1.64 -1.31)"/><circle class="cls-8" cx="374.25" cy="338.6" r="4.94" transform="translate(-120.14 446.4) rotate(-54.62)"/><path class="cls-9" d="M373.15,342.59a5.62,5.62,0,0,1-.75-8.57,4.94,4.94,0,0,0,2.7,9.45A5.63,5.63,0,0,1,373.15,342.59Z" transform="translate(-1.64 -1.31)"/><path class="cls-10" d="M376.45,336.09a4,4,0,0,1-1.22,6,3.5,3.5,0,0,0,.08-7A4,4,0,0,1,376.45,336.09Z" transform="translate(-1.64 -1.31)"/><circle class="cls-8" cx="402.09" cy="249.65" r="4.94" transform="translate(-4.32 3.07) rotate(-0.62)"/><path class="cls-9" d="M403.54,253.52A5.62,5.62,0,0,1,397.9,247a4.94,4.94,0,0,0,7.74,6.06A5.63,5.63,0,0,1,403.54,253.52Z" transform="translate(-1.64 -1.31)"/><path class="cls-10" d="M402.39,246.32a4,4,0,0,1,2.52,5.54,3.5,3.5,0,0,0-4-5.67A4,4,0,0,1,402.39,246.32Z" transform="translate(-1.64 -1.31)"/><circle class="cls-8" cx="372.32" cy="161.33" r="4.94" transform="translate(-24.37 252.64) rotate(-36.62)"/><path class="cls-9" d="M375.77,163.6a5.62,5.62,0,0,1-8.38-1.93,4.94,4.94,0,0,0,9.82.35A5.63,5.63,0,0,1,375.77,163.6Z" transform="translate(-1.64 -1.31)"/><path class="cls-10" d="M370.61,158.46a4,4,0,0,1,5.29,3,3.5,3.5,0,0,0-6.59-2.22A4,4,0,0,1,370.61,158.46Z" transform="translate(-1.64 -1.31)"/><path class="cls-11" d="M452.31,311.44c2.94,8.53,11,32,26.34,41.25,0,0-11.93,9.23-21.88-5.77s-16.26-56.41-16.26-56.41l6-.3S449.37,302.91,452.31,311.44Z" transform="translate(-1.64 -1.31)"/><path class="cls-12" d="M444.39,290.66s2.88,12.71,5.82,21.24,11,32,26.34,41.25a15.25,15.25,0,0,1-4.62,2.23,15.51,15.51,0,0,0,6.72-2.68c-15.39-9.23-23.4-32.72-26.34-41.25s-5.82-21.24-5.82-21.24l-6,.3.05.34Z" transform="translate(-1.64 -1.31)"/><path class="cls-13" d="M445.41,285.82l-.67-3.26a4,4,0,1,0-7.75,1.6l.67,3.26a4,4,0,1,0,7.75-1.6Zm-6.67.9-.48-2.34a2.76,2.76,0,0,1,5.4-1.12l.48,2.34a2.76,2.76,0,1,1-5.4,1.12Z" transform="translate(-1.64 -1.31)"/><path class="cls-14" d="M446.19,286l-.67-3.26a4,4,0,1,0-7.75,1.6l.67,3.26a4,4,0,1,0,7.75-1.6Zm-6.67.9-.48-2.34a2.76,2.76,0,0,1,5.4-1.12l.48,2.34a2.76,2.76,0,1,1-5.4,1.12Z" transform="translate(-1.64 -1.31)"/><path class="cls-15" d="M477.27,353.57c-4.31,1.55-11.65,2.07-18.13-7.71C450.08,332.18,444,296.61,443,290.38l-2.52.13s6.31,41.41,16.26,56.41C464.69,358.86,473.86,355.46,477.27,353.57Z" transform="translate(-1.64 -1.31)"/><path class="cls-16" d="M438,293.3l10.42-1.83a2.49,2.49,0,0,0,2-2.87v0l-15.23,3A2.48,2.48,0,0,0,438,293.3Z" transform="translate(-1.64 -1.31)"/><path class="cls-17" d="M450.47,288.58a2.49,2.49,0,0,0-2.87-2l-10.42,1.83a2.49,2.49,0,0,0-2,2.87,2.42,2.42,0,0,0,.07.25Z" transform="translate(-1.64 -1.31)"/><path class="cls-14" d="M225.51,490.86a5.23,5.23,0,1,0,0-7.39A5.23,5.23,0,0,0,225.51,490.86ZM231.4,485a3.11,3.11,0,1,1-4.39,0A3.11,3.11,0,0,1,231.4,485Z" transform="translate(-1.64 -1.31)"/><path class="cls-18" d="M236.68,484.85a3.25,3.25,0,0,1-5,0c-2.69-2.69-.22-4.92-.22-4.92Z" transform="translate(-1.64 -1.31)"/><path class="cls-14" d="M236.57,484.74a3.12,3.12,0,0,1-4-.79c-1.56-1.56-1.38-3-1-3.88l-.16-.15s-2.47,2.24.22,4.92a3.25,3.25,0,0,0,5,0Z" transform="translate(-1.64 -1.31)"/><circle class="cls-19" cx="251.79" cy="462.01" r="23.44"/><path class="cls-20" d="M253.42,488.48a25.15,25.15,0,1,0-25.15-25.15A25.15,25.15,0,0,0,253.42,488.48Zm0-46.37a21.21,21.21,0,1,1-21.21,21.21A21.21,21.21,0,0,1,253.42,442.11Z" transform="translate(-1.64 -1.31)"/><path class="cls-21" d="M244,462l-7.93.43,7.85,1.25a9.5,9.5,0,0,0,1.91,5.39l-5.3,5.91,6.43-4.66a9.5,9.5,0,0,0,5.17,2.46l.43,7.93,1.25-7.85a9.5,9.5,0,0,0,5.39-1.91l5.91,5.3-4.66-6.43a9.5,9.5,0,0,0,2.46-5.17l7.93-.43L263,463a9.5,9.5,0,0,0-1.91-5.39l5.3-5.91-6.43,4.66a9.5,9.5,0,0,0-5.17-2.46l-.43-7.93-1.25,7.85a9.5,9.5,0,0,0-5.39,1.91l-5.91-5.3,4.66,6.43A9.5,9.5,0,0,0,244,462Zm9.83-5.19a6.53,6.53,0,1,1-6.9,6.14A6.53,6.53,0,0,1,253.81,456.81Z" transform="translate(-1.64 -1.31)"/><path class="cls-18" d="M253.42,434.7a28.62,28.62,0,1,1-28.62,28.62A28.65,28.65,0,0,1,253.42,434.7Zm0,54.32a25.69,25.69,0,1,0-25.69-25.69A25.72,25.72,0,0,0,253.42,489Z" transform="translate(-1.64 -1.31)"/><path class="cls-14" d="M253.42,436a27.3,27.3,0,1,1-27.29,27.29A27.33,27.33,0,0,1,253.42,436Zm0,51.8a24.5,24.5,0,1,0-24.5-24.5A24.53,24.53,0,0,0,253.42,487.83Z" transform="translate(-1.64 -1.31)"/><polygon class="cls-22" points="254.37 460.94 251.79 462.01 258.87 479.11 254.37 460.94"/><polygon class="cls-23" points="258.87 479.11 251.79 462.01 249.21 463.08 258.87 479.11"/><polygon class="cls-20" points="254.37 460.94 251.79 462.01 244.7 444.91 254.37 460.94"/><polygon class="cls-11" points="244.7 444.91 251.79 462.01 249.21 463.08 244.7 444.91"/><circle class="cls-24" cx="253.42" cy="463.33" r="2.04" transform="translate(-159.65 130.93) rotate(-22.5)"/><circle class="cls-14" cx="253.42" cy="463.33" r="1.15" transform="translate(-159.65 130.93) rotate(-22.5)"/><rect class="cls-20" x="252.11" y="482.6" width="2.63" height="2.63" transform="translate(88.8 1003.99) rotate(-135)"/><rect class="cls-20" x="266.67" y="476.57" width="2.63" height="2.63" transform="translate(534.34 954.46) rotate(-180)"/><rect class="cls-20" x="272.7" y="462.01" width="2.63" height="2.63" transform="translate(793.76 595.87) rotate(135)"/><rect class="cls-20" x="266.67" y="447.45" width="2.63" height="2.63" transform="translate(715.11 179.46) rotate(90)"/><rect class="cls-20" x="252.11" y="441.42" width="2.63" height="2.63" transform="translate(385.65 -50.84) rotate(45)"/><rect class="cls-20" x="235.91" y="446.13" width="2.63" height="2.63"/><rect class="cls-20" x="231.51" y="462.01" width="2.63" height="2.63" transform="translate(-261.06 299.02) rotate(-45)"/><rect class="cls-20" x="237.55" y="476.57" width="2.63" height="2.63" transform="translate(-240.66 715.43) rotate(-90)"/><rect class="cls-20" x="261.24" y="481.51" width="0.65" height="2.96" rx="0.32" ry="0.32" transform="translate(686.42 827.79) rotate(157.5)"/><rect class="cls-20" x="272.76" y="469.99" width="0.65" height="2.96" rx="0.32" ry="0.32" transform="translate(811.53 398.29) rotate(112.5)"/><rect class="cls-20" x="272.76" y="453.71" width="0.65" height="2.96" rx="0.32" ry="0.32" transform="translate(587.48 27.39) rotate(67.5)"/><rect class="cls-20" x="261.24" y="442.19" width="0.65" height="2.96" rx="0.32" ry="0.32" transform="translate(188.06 -67.64) rotate(22.5)"/><rect class="cls-20" x="244.96" y="442.19" width="0.65" height="2.96" rx="0.32" ry="0.32" transform="translate(-152.75 126.32) rotate(-22.5)"/><rect class="cls-20" x="233.44" y="453.71" width="0.65" height="2.96" rx="0.32" ry="0.32" transform="translate(-277.86 495.65) rotate(-67.5)"/><rect class="cls-20" x="233.44" y="469.99" width="0.65" height="2.96" rx="0.32" ry="0.32" transform="translate(-113.99 866.55) rotate(-112.5)"/><rect class="cls-20" x="244.96" y="481.51" width="0.65" height="2.96" rx="0.32" ry="0.32" transform="translate(285.43 1021.75) rotate(-157.5)"/><path class="cls-25" d="M114.8,435.25l4.63-1.13c8.75-2.55,16.73-1.08,23,9.16l4.8,4.12,3.53-.43a26.78,26.78,0,0,0-5.68-13.84c-4.58-6.21-15.51-13.33-25.71-7.71l-3,1.42Z" transform="translate(-1.64 -1.31)"/><path class="cls-26" d="M116.23,427.76l1.62-.77c10.2-5.62,21.12,1.5,25.71,7.71A26.82,26.82,0,0,1,149,447.19l1.73-.21a26.78,26.78,0,0,0-5.68-13.84c-4.58-6.21-15.51-13.33-25.71-7.71l-3,1.42Z" transform="translate(-1.64 -1.31)"/><polygon class="cls-27" points="108.32 428.59 106.96 435.46 113.16 433.94 114.77 425.53 108.32 428.59"/><circle class="cls-27" cx="123.32" cy="427.73" r="0.57" transform="translate(-173.15 92.9) rotate(-25.39)"/><circle class="cls-27" cx="145.46" cy="441.4" r="0.57" transform="translate(-176.88 103.72) rotate(-25.39)"/><circle class="cls-27" cx="144.96" cy="437.37" r="0.57" transform="translate(-175.2 103.11) rotate(-25.39)"/><path class="cls-14" d="M112.49,436.16l3.94-3.59c7.23-7.19,15.85-10,27.51-3.33l6.92,1.48,3.23-2.31a30,30,0,0,0-13-10.55c-7.83-3.64-22.37-4.78-29.37,6.2l-2.17,3Z" transform="translate(-1.64 -1.31)"/><path class="cls-26" d="M109.88,428l1.18-1.62c7-11,21.54-9.84,29.37-6.2a30,30,0,0,1,12.07,9.33l1.59-1.14a30,30,0,0,0-13-10.55c-7.83-3.64-22.37-4.78-29.37,6.2l-2.17,3Z" transform="translate(-1.64 -1.31)"/><polygon class="cls-27" points="103.24 432.19 105.58 439.66 110.86 434.85 107.93 425.73 103.24 432.19"/><circle class="cls-27" cx="116.83" cy="424.21" r="0.64" transform="matrix(0.59, -0.81, 0.81, 0.59, -296.67, 268.07)"/><circle class="cls-27" cx="145.89" cy="425.79" r="0.64" transform="translate(-285.97 292.23) rotate(-54)"/><circle class="cls-27" cx="143.25" cy="422.09" r="0.64" transform="translate(-284.06 288.56) rotate(-54)"/><path class="cls-25" d="M112.22,435.35l2.28-4.81c4-9.39,10.86-15.28,24.19-13.51l7-1.26,2.12-3.37a30,30,0,0,0-16-4.83c-8.62-.4-22.51,4.06-24.83,16.87l-.88,3.59Z" transform="translate(-1.64 -1.31)"/><path class="cls-26" d="M106.72,428.82l.48-1.95c2.32-12.81,16.2-17.28,24.83-16.87a30,30,0,0,1,14.71,4l1-1.65a30,30,0,0,0-16-4.83c-8.62-.4-22.51,4.06-24.83,16.87l-.88,3.59Z" transform="translate(-1.64 -1.31)"/><polygon class="cls-27" points="102.53 434.46 107.53 440.49 110.59 434.03 104.42 426.71 102.53 434.46"/><circle class="cls-27" cx="111.7" cy="422.65" r="0.64" transform="translate(-327.01 429.7) rotate(-76.29)"/><circle class="cls-27" cx="139.19" cy="413.08" r="0.64" transform="translate(-296.74 449.1) rotate(-76.29)"/><circle class="cls-27" cx="135.34" cy="410.66" r="0.64" transform="translate(-297.33 443.51) rotate(-76.29)"/><path class="cls-14" d="M107.72,430.92l1.16-5.2c1.78-10,7.21-17.31,20.59-18.54l6.51-2.77,1.32-3.75a30,30,0,0,0-16.69-1.16c-8.5,1.52-21,8.95-20.47,22l-.06,3.7Z" transform="translate(-1.64 -1.31)"/><path class="cls-26" d="M100.91,425.77l0-2c-.58-13,12-20.44,20.47-22a30,30,0,0,1,15.24.69l.65-1.84a30,30,0,0,0-16.69-1.16c-8.5,1.52-21,8.95-20.47,22l-.06,3.7Z" transform="translate(-1.64 -1.31)"/><polygon class="cls-27" points="98.32 431.81 104.54 436.58 106.09 429.6 98.45 423.83 98.32 431.81"/><circle class="cls-27" cx="104.4" cy="418.65" r="0.64" transform="translate(-317.48 515.11) rotate(-89.09)"/><circle class="cls-27" cx="129.08" cy="403.23" r="0.64" transform="translate(-277.77 524.6) rotate(-89.09)"/><circle class="cls-27" cx="124.79" cy="401.72" r="0.64" transform="translate(-280.49 518.84) rotate(-89.09)"/><path class="cls-28" d="M76.4,197.59a1,1,0,0,1-.81.71,13,13,0,0,0-5.78,2.26c-.3.2-.58.39-.88.57a6.63,6.63,0,0,0-2.63,3c-4.78,9.27-12.63,8.79-16,8.59a9.18,9.18,0,0,0-1.17,0c-.14,0-.25.26-.31.45a5.74,5.74,0,0,0-.13,2,1,1,0,0,1-1.87.76L40.14,207a1,1,0,0,1-.16-.94h0a1,1,0,0,1,.67-.67l11.24-3.72a1,1,0,0,1,1,1.78A7.6,7.6,0,0,0,51,205.83v0h0c1.91.62,6.71-1.16,8-5.11,1-3.07-8.28-7.55-13.23-9.16-.78-.25-3.13-1-4.63,2.28l-2,6.09a3.12,3.12,0,0,1-3.93,2l-1.32-.43a3.12,3.12,0,0,1-2-3.93L35,188.2a16.58,16.58,0,0,0-3.8-1.61,2.42,2.42,0,0,0-1.84.13,7.08,7.08,0,0,1-.84.52l0,0a7.12,7.12,0,1,1,3.08-9.48v0a7.22,7.22,0,0,1,.38.93,2.37,2.37,0,0,0,1.34,1.16,16.94,16.94,0,0,0,4.08,1l3.06-9.41a3.12,3.12,0,0,1,3.93-2l1.32.43a3.12,3.12,0,0,1,2,3.93l-1.86,5.71a6.94,6.94,0,0,0-.18,1.78,3.18,3.18,0,0,0,2.46,3.17c5,1.61,15.09,3.44,16.09.37,1.29-4-1.55-8.22-3.46-8.84h0v0a7.6,7.6,0,0,0,.14,3,1,1,0,0,1-1.87.84l-6.91-9.61a1,1,0,0,1-.15-.93h0a1,1,0,0,1,.68-.67l10.66-3.27a1,1,0,0,1,1.07,1.71,5.7,5.7,0,0,0-1.1,1.73c-.06.19-.11.44,0,.55a9.18,9.18,0,0,0,1,.66c2.83,1.81,9.46,6,7.88,16.34a6.63,6.63,0,0,0,.35,4c.14.32.26.65.38,1a13,13,0,0,0,3.35,5.22A1,1,0,0,1,76.4,197.59Z" transform="translate(-1.64 -1.31)"/><path class="cls-29" d="M77.18,195.21a1,1,0,0,1-.81.71,13,13,0,0,0-5.78,2.26c-.3.2-.58.39-.88.57a6.63,6.63,0,0,0-2.63,3c-4.78,9.27-12.63,8.79-16,8.59a9.18,9.18,0,0,0-1.17,0c-.14,0-.25.26-.31.45a5.74,5.74,0,0,0-.13,2,1,1,0,0,1-1.87.76l-6.7-8.92a1,1,0,0,1-.16-.94h0a1,1,0,0,1,.67-.67l11.24-3.72a1,1,0,0,1,1,1.78,7.6,7.6,0,0,0-1.88,2.35v0h0c1.91.62,6.71-1.16,8-5.11,1-3.07-8.28-7.55-13.23-9.16-.78-.25-3.13-1-4.63,2.28l-2,6.09a3.12,3.12,0,0,1-3.93,2l-1.32-.43a3.12,3.12,0,0,1-2-3.93l3.06-9.41a16.58,16.58,0,0,0-3.8-1.61,2.42,2.42,0,0,0-1.84.13,7.08,7.08,0,0,1-.84.52l0,0a7.12,7.12,0,1,1,3.08-9.48v0a7.22,7.22,0,0,1,.38.93,2.37,2.37,0,0,0,1.34,1.16,16.94,16.94,0,0,0,4.08,1l3.06-9.41a3.12,3.12,0,0,1,3.93-2l1.32.43a3.12,3.12,0,0,1,2,3.93l-1.86,5.71a6.94,6.94,0,0,0-.18,1.78,3.18,3.18,0,0,0,2.46,3.17c5,1.61,15.09,3.44,16.09.37,1.29-4-1.55-8.22-3.46-8.84h0v0a7.6,7.6,0,0,0,.14,3,1,1,0,0,1-1.87.84l-6.91-9.61a1,1,0,0,1-.15-.93h0a1,1,0,0,1,.68-.67L64.06,163a1,1,0,0,1,1.07,1.71,5.7,5.7,0,0,0-1.1,1.73c-.06.19-.11.44,0,.55a9.18,9.18,0,0,0,1,.66c2.83,1.81,9.46,6,7.88,16.34a6.63,6.63,0,0,0,.35,4c.14.32.26.65.38,1a13,13,0,0,0,3.35,5.22A1,1,0,0,1,77.18,195.21Z" transform="translate(-1.64 -1.31)"/><path class="cls-30" d="M53.7,167.25l6.91,9.61s-1.13-5,1.24-4.25,5.63,5.55,4.13,10.15-14.25,1.33-17.41.3A4.22,4.22,0,0,1,45.39,179c-1.65-1.61-4.26-.28-6.87,1,2.61-1.33,5.21-2.66,6.87-1a8,8,0,0,1,.23-2.14l1.86-5.71a2.08,2.08,0,0,0-1.33-2.61l-1.32-.43a2.08,2.08,0,0,0-2.61,1.33l-3.27,10.06c-1.38.32-3.78-.47-5.19-.93a3.46,3.46,0,0,1-2-1.75,6.11,6.11,0,0,0-.36-.9h0A6.07,6.07,0,1,0,28.78,184h0a6.1,6.1,0,0,0,.82-.52,3.46,3.46,0,0,1,2.63-.25c1.41.46,3.82,1.23,4.75,2.3l-3.27,10.06A2.08,2.08,0,0,0,35,198.16l1.32.43A2.08,2.08,0,0,0,39,197.26l2-6.14c.8-1.78,2.51-4,5.93-2.9,3.16,1,15.4,5.87,13.9,10.48s-6.94,6.56-9.31,5.79,1.5-4.17,1.5-4.17L41.75,204l6.7,8.92s-.42-3.34,1.28-3.65,11.06,2.37,16.41-8a7.69,7.69,0,0,1,3-3.44,15.47,15.47,0,0,1,7-3,15.47,15.47,0,0,1-3.93-6.51,7.69,7.69,0,0,1-.43-4.56c1.77-11.54-7.37-14.87-8.56-16.13S64.37,164,64.37,164ZM36.77,179.43c-2,.31-4.08.61-2,3.22C32.69,180,34.73,179.74,36.77,179.43Zm10,8.09c1.16-.59,4.36-1.49,2.3-4.1C51.11,186,47.91,186.93,46.74,187.52Z" transform="translate(-1.64 -1.31)"/><path class="cls-31" d="M52,206a4.8,4.8,0,0,1-1-.19A2.31,2.31,0,0,1,49.42,203L44,204.74l3.53,4.7a2.71,2.71,0,0,1,1.93-1.51,7.45,7.45,0,0,1,1.69,0A2.42,2.42,0,0,0,52,206Z" transform="translate(-1.64 -1.31)"/><path class="cls-31" d="M40,180.61l-.76.18a10.43,10.43,0,0,1-5-.66c-.56.43-.6,1.15.42,2.46a8.43,8.43,0,0,1,3.32,2l.51.59L35,196a.7.7,0,0,0,.44.87l1.32.43a.7.7,0,0,0,.87-.44l2-6.21,0-.07c1.52-3.4,4.3-4.72,7.62-3.65l.44.15c1-.45,2-1.1,1.94-2.2-.87-.24-1.44-.43-1.56-.46A5.72,5.72,0,0,1,44,178.26a6.46,6.46,0,0,0-3.48.76Z" transform="translate(-1.64 -1.31)"/><path class="cls-31" d="M59.59,189.75c-.26.81-2,1.13-1.82,2.08,3,2,5.24,4.55,4.35,7.29-.08.25-.18.48-.27.72.88.85,2.08.72,3.42.15a8.52,8.52,0,0,1,3.2-3.34c.27-.16.52-.33.78-.5A14.31,14.31,0,0,1,73,194.27C69.44,191.24,63.73,191.9,59.59,189.75Z" transform="translate(-1.64 -1.31)"/><path class="cls-31" d="M61.57,166.28,56,168l3.32,4.62a2.31,2.31,0,0,1,3-1.33,5.17,5.17,0,0,1,1.32.68c.46-.67,0-1.64-.37-2.59a5.43,5.43,0,0,1-1-.75A2.71,2.71,0,0,1,61.57,166.28Z" transform="translate(-1.64 -1.31)"/><circle class="cls-29" cx="26" cy="178.58" r="4" transform="translate(-153.51 146.81) rotate(-72)"/><path class="cls-32" d="M275.13,38.61h0c0-.76.15-.94.33-.46,2,5.34,4.89-.26,6.28-3.2.13-.26.28-.27.34.13h0a2.71,2.71,0,0,1,0,1.15c-1,1.9-3.45,6.42-6.39,4.15A2.8,2.8,0,0,1,275.13,38.61Z" transform="translate(-1.64 -1.31)"/><path class="cls-33" d="M223,35.43s19.35,15.33,31.6,17.78,20,1.71,22.09-8.58S267.06,29,258.73,27.29s-32.42-2.91-32.42-2.91Z" transform="translate(-1.64 -1.31)"/><path class="cls-34" d="M225.77,27.09s24.09,1.25,32.42,2.91c8,1.6,19.06,6.63,18.1,16.14.14-.48.26-1,.37-1.52,2.06-10.29-9.6-15.67-17.93-17.34s-32.42-2.91-32.42-2.91l-3.34,11,.22.18Z" transform="translate(-1.64 -1.31)"/><path class="cls-35" d="M255.64,50.6C243.39,48.15,224,32.82,224,32.82l2.55-8.43h-.27l-3.34,11s19.35,15.33,31.6,17.78c11.5,2.3,19.07,1.79,21.65-6.81C273,52.46,265.84,52.64,255.64,50.6Z" transform="translate(-1.64 -1.31)"/><rect class="cls-33" x="220.51" y="20.4" width="6.48" height="18.36" rx="3.24" ry="3.24" transform="translate(17.56 -67.11) rotate(17.47)"/><path class="cls-34" d="M226.5,20.82a3.25,3.25,0,0,0-4.06,2.12l-.14.43a3.24,3.24,0,0,1,5.36,3.28l-3.43,10.9a3.21,3.21,0,0,0,.82-1.33l3.57-11.33A3.25,3.25,0,0,0,226.5,20.82Z" transform="translate(-1.64 -1.31)"/><path class="cls-35" d="M221.77,36.44a3.25,3.25,0,0,1-2.12-4.06L222.91,22a3.18,3.18,0,0,0-.47.9l-3.57,11.33A3.25,3.25,0,0,0,221,38.33h0a3.25,3.25,0,0,0,4.06-2.12l.31-1A3.24,3.24,0,0,1,221.77,36.44Z" transform="translate(-1.64 -1.31)"/><path class="cls-32" d="M265.28,53.91c-.94,4.7-5.25,6.68-10,5.73s-8-4.43-7-9.13,5.26-6.68,10-5.73S266.22,49.22,265.28,53.91Z" transform="translate(-1.64 -1.31)"/><path class="cls-36" d="M265.41,53.06c-1.06,3.54-4.54,5.43-8.66,5.25-4.82-.21-8.54-3.16-8.34-7.94,0-.21,0-.41.06-.61-.07.24-.14.49-.19.75-.94,4.7,2.29,8.18,7,9.13s9.05-1,10-5.73A8.5,8.5,0,0,0,265.41,53.06Z" transform="translate(-1.64 -1.31)"/><ellipse class="cls-37" cx="256.78" cy="52.21" rx="3.97" ry="4.6" transform="matrix(0.2, -0.98, 0.98, 0.2, 153.62, 292.46)"/><ellipse class="cls-38" cx="256.78" cy="52.21" rx="2.94" ry="3.41" transform="translate(153.62 292.46) rotate(-78.7)"/><path class="cls-20" d="M261.09,39.53c-1.4-.29-2.1-.43-3.5-.69a3.14,3.14,0,0,1-2.53-3.75h0a4,4,0,0,1,4-3.17,15.08,15.08,0,0,1,3.52.71A3.93,3.93,0,0,1,264.94,37h0A3.24,3.24,0,0,1,261.09,39.53Z" transform="translate(-1.64 -1.31)"/><path class="cls-20" d="M256.8,39.63h0a.57.57,0,0,1-.42-.68l.16-.77a.61.61,0,0,1,.67-.49h0a.55.55,0,0,1,.42.68l-.16.78A.59.59,0,0,1,256.8,39.63Z" transform="translate(-1.64 -1.31)"/><path class="cls-20" d="M259.21,40.11h0a.58.58,0,0,1-.42-.7l.17-.79a.59.59,0,0,1,.67-.49h0a.58.58,0,0,1,.42.7l-.17.79A.59.59,0,0,1,259.21,40.11Z" transform="translate(-1.64 -1.31)"/><path class="cls-20" d="M261.62,40.59h0a.57.57,0,0,1-.42-.69l.17-.78a.57.57,0,0,1,.66-.46h0a.59.59,0,0,1,.42.7l-.16.77A.58.58,0,0,1,261.62,40.59Z" transform="translate(-1.64 -1.31)"/><path class="cls-33" d="M259.29,35.53a1.71,1.71,0,0,1-1.87,1.39,1.45,1.45,0,0,1-1.2-1.77,1.85,1.85,0,0,1,1.87-1.47A1.46,1.46,0,0,1,259.29,35.53Z" transform="translate(-1.64 -1.31)"/><path class="cls-33" d="M263.84,36.66A1.49,1.49,0,0,1,262,37.83a1.66,1.66,0,0,1-1.15-2,1.5,1.5,0,0,1,1.84-1.24A1.79,1.79,0,0,1,263.84,36.66Z" transform="translate(-1.64 -1.31)"/><path class="cls-20" d="M356.78,103.56a77.88,77.88,0,0,1-7.56-6.21l-.31-.2h0A4,4,0,0,1,347.82,96c-3.9-4-5.26-6.76-4.29-8.85-6.78-6.44-7.32-9.15-5.92-11.11a3.77,3.77,0,0,1,3.61-1.35,5.59,5.59,0,0,1,3.89-1.93l1.55-2.9c2.26-4.25,4.6-8.64,7.31-12.75a63.05,63.05,0,0,1,4.1-5.57c4.33-5.23,8.55-7.56,12.91-7.13a9.45,9.45,0,0,1,1.79.33c1.53-.27,3.5.54,6.43,2.61a14.83,14.83,0,0,1,1.52,1,17.9,17.9,0,0,1,3.13,2.9l18.38,14.07a14.14,14.14,0,0,1,1.7,1.05,10.12,10.12,0,0,1,4.28,7c.72,5.08-2.11,10.51-4.36,13.9l.51.28-6.77,7-.14-.07-7.19,7.12a6.31,6.31,0,0,1,.22.7,5.28,5.28,0,0,1,.17,1.48l.37.25a8.42,8.42,0,0,1,.72.59,6.86,6.86,0,0,1,1.47,1.89,4.32,4.32,0,0,1,0,4.37l-.14.21-.12.2a4.63,4.63,0,0,1-3.57,2.13c-1.7,1.93-5,1-8.13-.31a5.27,5.27,0,0,1-3-1.06l-.19-.15c-2,1.82-5.78.53-8.53-.66a69.86,69.86,0,0,1-12-7Z" transform="translate(-1.64 -1.31)"/><path class="cls-12" d="M339.18,77.84c1.45-2,13.42,4,26.73,13.46s22.92,18.8,21.47,20.84c-.83,1.17-5.15-.32-11.19-3.61.36.79.42,1.41.14,1.81-1.29,1.82-9.25-1.63-17.78-7.7s-14.39-12.46-13.1-14.28a1.7,1.7,0,0,1,1.54-.48C341.45,82.94,338.31,79.07,339.18,77.84Z" transform="translate(-1.64 -1.31)"/><polygon class="cls-39" points="369.42 77.13 351.4 62.05 344.13 75.21 359.96 90.34 369.42 77.13"/><polygon class="cls-40" points="372.39 78.79 393.51 89.55 384.26 99.34 362.32 91.87 372.39 78.79"/><path class="cls-41" d="M355.48,60.3s11.5-21.6,21.92-8.64c0,0,5.87,9.69-3.15,23.24Z" transform="translate(-1.64 -1.31)"/><path class="cls-42" d="M377.53,76.28c.48-1.05,9.4-14.15,2.27-24.5L402.23,69s5.6,7.33-4.51,18.22Z" transform="translate(-1.64 -1.31)"/><rect class="cls-43" x="392.58" y="55.21" width="0.66" height="26.69" transform="translate(109.36 349.38) rotate(-54.92)"/><rect class="cls-43" x="390.43" y="65.02" width="0.66" height="23.62" transform="matrix(0.52, -0.85, 0.85, 0.52, 119.78, 368.86)"/><rect class="cls-43" x="364.7" y="63.33" width="18.5" height="0.66" transform="translate(122.87 348.12) rotate(-58.54)"/><rect class="cls-43" x="359.18" y="59" width="19.94" height="0.66" transform="translate(109.5 328.6) rotate(-55.49)"/><polygon class="cls-43" points="357.86 63.62 358.43 63.95 367.52 47.76 366.95 47.44 357.86 63.62"/><path class="cls-43" d="M370.13,85.6c7.87,3.94,19.79,10,20.35,10.44l.5-.43c-.32-.42-13-6.82-20.56-10.6Z" transform="translate(-1.64 -1.31)"/><rect class="cls-43" x="359.33" y="65.12" width="0.66" height="21.63" transform="translate(72.9 306.62) rotate(-51.06)"/><rect class="cls-43" x="356.23" y="70.25" width="0.66" height="20.91" transform="translate(55.66 289.36) rotate(-47.81)"/><path class="cls-44" d="M345.1,77.47,362,93.35c-.28-.26,6.81-8.25,7.25-8.81A76.7,76.7,0,0,0,378,71.34c4.62-8.94,4.93-19-5.55-23.61a5.47,5.47,0,0,0-2.05-.53c-4.47-.44-8.25,3.13-10.87,6.29a61,61,0,0,0-3.94,5.36C351.66,64.78,348.55,71.32,345.1,77.47Zm28-4.35L357.6,60.47c2.4-4.48,10.72-17.74,19.59-5.26C377.19,55.21,380.58,61.92,373.12,73.11Zm-3,4.68L361.77,90,347.51,77.11c1.42-2.48,5.69-9.76,7.2-12.34Z" transform="translate(-1.64 -1.31)"/><path class="cls-45" d="M372.45,47.72c17.92,9.55,1.91,29.1,1.91,29.1l-2.2,2.73-10.5,13.58,24.59,9.15v-.06l0,0L396.66,92l.11.05,3.42-3.52-.13-.07c2.19-2.83,11.2-15.54.35-20.82,0,0,7.88,4.31-3.48,19.13L379,77c14.33-19.28-1.35-27.18-1.35-27.18C372.9,46.44,372.45,47.72,372.45,47.72Zm2.94,33.47,18.72,9.49-8.23,8.82L367,91.24Z" transform="translate(-1.64 -1.31)"/><ellipse class="cls-46" cx="387.02" cy="84.5" rx="5.87" ry="3.54" transform="matrix(0.61, -0.79, 0.79, 0.61, 81.31, 337.07)"/><ellipse class="cls-47" cx="387.9" cy="85.18" rx="5.87" ry="3.54" transform="translate(81.13 338.06) rotate(-52.18)"/><ellipse class="cls-48" cx="384.5" cy="102.93" rx="2.66" ry="3.75" transform="translate(37.4 299.32) rotate(-44.77)"/><path class="cls-49" d="M383.17,104.21c1.47,1.48,3.41,1.94,4.32,1a2.06,2.06,0,0,0,.38-2,4.55,4.55,0,0,0-.65-1.43,6,6,0,0,0-.72-.87c-1.47-1.48-3.4-1.94-4.32-1a2,2,0,0,0-.41,1.85,4.18,4.18,0,0,0,.56,1.4A5.6,5.6,0,0,0,383.17,104.21Z" transform="translate(-1.64 -1.31)"/><path class="cls-50" d="M382.32,103.13l5.54.09a4.55,4.55,0,0,0-.65-1.43l-5.45-.06A4.18,4.18,0,0,0,382.32,103.13Z" transform="translate(-1.64 -1.31)"/><ellipse class="cls-48" cx="379.46" cy="101.39" rx="2.66" ry="3.75" transform="translate(155.91 424.15) rotate(-70.56)"/><path class="cls-49" d="M378.82,103.12c2,.69,3.91.27,4.34-1a2.06,2.06,0,0,0-.54-2,4.61,4.61,0,0,0-1.21-1,6.25,6.25,0,0,0-1-.47c-2-.69-3.91-.27-4.34,1a2,2,0,0,0,.43,1.84,4.17,4.17,0,0,0,1.12,1A5.67,5.67,0,0,0,378.82,103.12Z" transform="translate(-1.64 -1.31)"/><path class="cls-50" d="M377.59,102.52l5-2.34a4.61,4.61,0,0,0-1.21-1l-4.94,2.32A4.17,4.17,0,0,0,377.59,102.52Z" transform="translate(-1.64 -1.31)"/><ellipse class="cls-48" cx="366.68" cy="97.11" rx="2.66" ry="3.75" transform="matrix(0.6, -0.8, 0.8, 0.6, 68.2, 331.95)"/><path class="cls-49" d="M365.56,98.58c1.67,1.24,3.66,1.41,4.43.37a2.06,2.06,0,0,0,.07-2.06,4.53,4.53,0,0,0-.86-1.32,6.1,6.1,0,0,0-.84-.76c-1.67-1.25-3.65-1.41-4.43-.37a2,2,0,0,0-.14,1.89,4.17,4.17,0,0,0,.77,1.3A5.57,5.57,0,0,0,365.56,98.58Z" transform="translate(-1.64 -1.31)"/><path class="cls-50" d="M364.56,97.64l5.49-.74a4.53,4.53,0,0,0-.86-1.32l-5.4.76A4.17,4.17,0,0,0,364.56,97.64Z" transform="translate(-1.64 -1.31)"/><ellipse class="cls-48" cx="374.31" cy="97.69" rx="2.66" ry="3.75" transform="translate(-6.13 174.85) rotate(-26.33)"/><path class="cls-49" d="M372.64,98.48c.92,1.87,2.62,2.92,3.78,2.34a2.06,2.06,0,0,0,1-1.8,4.58,4.58,0,0,0-.17-1.56,6.1,6.1,0,0,0-.4-1.05c-.93-1.87-2.61-2.92-3.78-2.34a2,2,0,0,0-1,1.62,4.13,4.13,0,0,0,.09,1.51A5.6,5.6,0,0,0,372.64,98.48Z" transform="translate(-1.64 -1.31)"/><path class="cls-50" d="M372.18,97.19,377.41,99a4.58,4.58,0,0,0-.17-1.56l-5.16-1.78A4.13,4.13,0,0,0,372.18,97.19Z" transform="translate(-1.64 -1.31)"/><ellipse class="cls-48" cx="376.7" cy="103.43" rx="2.66" ry="3.75" transform="translate(-8.43 176.51) rotate(-26.33)"/><path class="cls-49" d="M375.31,104.66c.92,1.87,2.34,2.48,3.49,1.91a2.06,2.06,0,0,0,1-1.8,4.55,4.55,0,0,0-.17-1.56,6.2,6.2,0,0,0-.4-1.06c-.93-1.87-2.61-2.92-3.78-2.34a2,2,0,0,0-1,1.62,4.13,4.13,0,0,0,.09,1.51A10.8,10.8,0,0,0,375.31,104.66Z" transform="translate(-1.64 -1.31)"/><path class="cls-50" d="M374.57,102.93l5.23,1.83a4.55,4.55,0,0,0-.17-1.56l-5.16-1.78A4.13,4.13,0,0,0,374.57,102.93Z" transform="translate(-1.64 -1.31)"/><ellipse class="cls-48" cx="370.9" cy="100.8" rx="2.66" ry="3.75" transform="translate(21.08 262.26) rotate(-40.26)"/><path class="cls-49" d="M369.47,102c1.34,1.59,3.24,2.2,4.23,1.37a2.06,2.06,0,0,0,.53-2,4.54,4.54,0,0,0-.54-1.48,6.08,6.08,0,0,0-.65-.93c-1.35-1.59-3.24-2.21-4.23-1.37a2,2,0,0,0-.56,1.81,4.19,4.19,0,0,0,.45,1.44A5.66,5.66,0,0,0,369.47,102Z" transform="translate(-1.64 -1.31)"/><path class="cls-50" d="M368.71,100.83l5.52.52a4.54,4.54,0,0,0-.54-1.48l-5.43-.48A4.19,4.19,0,0,0,368.71,100.83Z" transform="translate(-1.64 -1.31)"/><ellipse class="cls-48" cx="350.67" cy="87.78" rx="2.66" ry="3.75" transform="translate(75.71 323.04) rotate(-54.93)"/><path class="cls-49" d="M349.59,89.28c1.7,1.2,3.7,1.31,4.44.25a2.06,2.06,0,0,0,0-2.06,4.55,4.55,0,0,0-.9-1.29,6,6,0,0,0-.86-.73c-1.71-1.2-3.69-1.31-4.44-.25a2,2,0,0,0-.08,1.89,4.2,4.2,0,0,0,.8,1.28A5.75,5.75,0,0,0,349.59,89.28Z" transform="translate(-1.64 -1.31)"/><path class="cls-50" d="M348.56,88.36l5.47-.9a4.55,4.55,0,0,0-.9-1.29l-5.38.91A4.2,4.2,0,0,0,348.56,88.36Z" transform="translate(-1.64 -1.31)"/><ellipse class="cls-48" cx="347.24" cy="83.95" rx="2.66" ry="3.75" transform="translate(139.3 374.29) rotate(-68.32)"/><path class="cls-49" d="M346.53,85.66c1.93.77,3.9.42,4.37-.78a2.06,2.06,0,0,0-.47-2,4.5,4.5,0,0,0-1.17-1.05,6.09,6.09,0,0,0-1-.52c-1.94-.77-3.9-.42-4.38.78a2,2,0,0,0,.36,1.86A4.21,4.21,0,0,0,345.32,85,5.73,5.73,0,0,0,346.53,85.66Z" transform="translate(-1.64 -1.31)"/><path class="cls-50" d="M345.32,85l5.12-2.14a4.5,4.5,0,0,0-1.17-1.05l-5,2.13A4.21,4.21,0,0,0,345.32,85Z" transform="translate(-1.64 -1.31)"/><ellipse class="cls-48" cx="387.46" cy="108.46" rx="2.66" ry="3.75" transform="translate(90.53 380.44) rotate(-58.42)"/><path class="cls-49" d="M386.46,110c1.77,1.09,3.77,1.08,4.44,0a2.05,2.05,0,0,0-.11-2.06,4.51,4.51,0,0,0-1-1.24,6,6,0,0,0-.9-.68c-1.78-1.09-3.76-1.09-4.44,0a2,2,0,0,0,0,1.89,4.17,4.17,0,0,0,.88,1.23A5.71,5.71,0,0,0,386.46,110Z" transform="translate(-1.64 -1.31)"/><path class="cls-50" d="M385.39,109.17l5.41-1.23a4.51,4.51,0,0,0-1-1.24l-5.31,1.23A4.17,4.17,0,0,0,385.39,109.17Z" transform="translate(-1.64 -1.31)"/><ellipse class="cls-48" cx="382.98" cy="105.97" rx="2.66" ry="3.75" transform="translate(-11.41 165.05) rotate(-24.21)"/><path class="cls-49" d="M381.28,106.7c.85,1.9,2.51,3,3.69,2.48a2.06,2.06,0,0,0,1.06-1.77,4.57,4.57,0,0,0-.11-1.57,6,6,0,0,0-.36-1.07c-.86-1.9-2.5-3-3.69-2.48a2,2,0,0,0-1,1.58,4.17,4.17,0,0,0,0,1.51A5.71,5.71,0,0,0,381.28,106.7Z" transform="translate(-1.64 -1.31)"/><path class="cls-50" d="M380.87,105.39l5.16,2a4.57,4.57,0,0,0-.11-1.57l-5.09-2A4.17,4.17,0,0,0,380.87,105.39Z" transform="translate(-1.64 -1.31)"/><ellipse class="cls-48" cx="380.23" cy="107.56" rx="2.66" ry="3.75" transform="translate(-9.9 178.48) rotate(-26.33)"/><path class="cls-49" d="M378.56,108.36c.92,1.87,2.62,2.92,3.78,2.35a2.06,2.06,0,0,0,1-1.81,4.58,4.58,0,0,0-.17-1.56,6.13,6.13,0,0,0-.4-1.05c-.93-1.87-2.61-2.92-3.78-2.34a2,2,0,0,0-1,1.62,4.14,4.14,0,0,0,.09,1.51A5.61,5.61,0,0,0,378.56,108.36Z" transform="translate(-1.64 -1.31)"/><path class="cls-50" d="M378.1,107.06l5.23,1.83a4.58,4.58,0,0,0-.17-1.56L378,105.55A4.14,4.14,0,0,0,378.1,107.06Z" transform="translate(-1.64 -1.31)"/><ellipse class="cls-48" cx="356.22" cy="91.29" rx="2.66" ry="3.75" transform="translate(-5.17 166.13) rotate(-26.33)"/><path class="cls-49" d="M354.55,92.08c.92,1.87,2.62,2.92,3.78,2.35a2.06,2.06,0,0,0,1-1.8,4.58,4.58,0,0,0-.17-1.57,6.16,6.16,0,0,0-.4-1.05c-.93-1.87-2.61-2.92-3.78-2.35a2,2,0,0,0-1,1.62,4.13,4.13,0,0,0,.09,1.51A5.57,5.57,0,0,0,354.55,92.08Z" transform="translate(-1.64 -1.31)"/><path class="cls-50" d="M354.09,90.79l5.23,1.83a4.58,4.58,0,0,0-.17-1.57L354,89.28A4.13,4.13,0,0,0,354.09,90.79Z" transform="translate(-1.64 -1.31)"/><ellipse class="cls-48" cx="351.86" cy="84.95" rx="2.66" ry="3.75" transform="translate(43.55 275.92) rotate(-45.66)"/><path class="cls-49" d="M350.55,86.26c1.49,1.46,3.44,1.89,4.34,1a2.06,2.06,0,0,0,.34-2,4.56,4.56,0,0,0-.68-1.42,6.21,6.21,0,0,0-.73-.86c-1.49-1.46-3.43-1.89-4.34-1a2,2,0,0,0-.39,1.85,4.14,4.14,0,0,0,.59,1.39A5.63,5.63,0,0,0,350.55,86.26Z" transform="translate(-1.64 -1.31)"/><path class="cls-50" d="M349.69,85.19h5.54a4.56,4.56,0,0,0-.68-1.42l-5.45,0A4.14,4.14,0,0,0,349.69,85.19Z" transform="translate(-1.64 -1.31)"/><ellipse class="cls-48" cx="346.09" cy="78.38" rx="2.66" ry="3.75" transform="translate(217.67 408.5) rotate(-81.83)"/><path class="cls-49" d="M345.8,80.21c2.06.3,3.89-.5,4.07-1.78a2.06,2.06,0,0,0-.92-1.84,4.57,4.57,0,0,0-1.38-.75,6.21,6.21,0,0,0-1.1-.27c-2.07-.29-3.89.5-4.07,1.78a2,2,0,0,0,.78,1.72,4.15,4.15,0,0,0,1.3.78A5.62,5.62,0,0,0,345.8,80.21Z" transform="translate(-1.64 -1.31)"/><path class="cls-50" d="M344.47,79.86l4.48-3.27a4.57,4.57,0,0,0-1.38-.75l-4.39,3.24A4.15,4.15,0,0,0,344.47,79.86Z" transform="translate(-1.64 -1.31)"/><path class="cls-43" d="M387.35,88.26l-2.21-1.07,2.61-2.66s-.48-4,2.61-1.32c1,.91-1.61,2-1.61,2Z" transform="translate(-1.64 -1.31)"/><circle class="cls-51" cx="376.12" cy="106.65" r="1.65" transform="translate(69.48 349.91) rotate(-54.56)"/><circle class="cls-52" cx="373.36" cy="107.12" r="1.65" transform="translate(67.99 347.92) rotate(-54.57)"/><circle class="cls-53" cx="375.11" cy="103.52" r="1.65" transform="translate(71.67 347.83) rotate(-54.57)"/><circle class="cls-54" cx="371.21" cy="105.59" r="1.65" transform="translate(68.33 345.52) rotate(-54.57)"/><path class="cls-55" d="M376.45,95.32s.3-1.95,3.22-5.28c0,0-5.14,2.29-6.86.53a9.24,9.24,0,0,1,1.35-6.07s-5.6,3.31-6.29,2a13.34,13.34,0,0,1-.78-6.5s-3.32,6.56-5.57,6.31L370,99.1Z" transform="translate(-1.64 -1.31)"/><path class="cls-49" d="M370.22,105.22,382,93.6s-10.93,3.58-6.61-3.62l3.6-5.82c-1.27,2-9.92,7.33-8.88,2.6.31-1.39,1.22-5.92,2-7a31.21,31.21,0,0,1-4.24,4.82c-4.23,3.88-4.53-.82-4.7-4.42L356,94.82S359.69,101.78,370.22,105.22Z" transform="translate(-1.64 -1.31)"/><ellipse class="cls-56" cx="366.94" cy="94.64" rx="5.18" ry="3.25" transform="translate(75.45 337.42) rotate(-54.56)"/><ellipse class="cls-57" cx="366.68" cy="94.99" rx="3.85" ry="2.42" transform="matrix(0.58, -0.81, 0.81, 0.58, 75.07, 337.39)"/><ellipse class="cls-20" cx="367.08" cy="93.11" rx="1.21" ry="0.41" transform="translate(36.29 279.07) rotate(-43.87)"/><circle class="cls-58" cx="365.27" cy="84.38" r="1.65" transform="translate(83.08 331.72) rotate(-54.56)"/><circle class="cls-59" cx="363.21" cy="86.14" r="1.65" transform="matrix(0.58, -0.81, 0.81, 0.58, 80.82, 330.83)"/><circle class="cls-60" cx="360.76" cy="88.45" r="1.65" transform="translate(77.91 329.8) rotate(-54.57)"/><circle class="cls-61" cx="360.31" cy="91.36" r="1.65" transform="translate(75.3 330.61) rotate(-54.56)"/><circle class="cls-62" cx="358.78" cy="93.51" r="1.65" transform="translate(72.95 330.31) rotate(-54.57)"/><circle class="cls-63" cx="356.71" cy="95.27" r="1.65" transform="translate(70.61 329.32) rotate(-54.56)"/><circle class="cls-64" cx="353.95" cy="95.74" r="1.65" transform="translate(69.11 327.32) rotate(-54.57)"/><circle class="cls-65" cx="350.89" cy="94.36" r="1.65" transform="translate(68.9 324.2) rotate(-54.56)"/><circle class="cls-66" cx="349.5" cy="91.76" r="1.65" transform="translate(70.48 322.02) rotate(-54.57)"/><circle class="cls-67" cx="351.57" cy="90" r="1.65" transform="translate(72.74 322.92) rotate(-54.56)"/><circle class="cls-68" cx="354.17" cy="88.61" r="1.65" transform="translate(74.96 324.45) rotate(-54.56)"/><circle class="cls-69" cx="357.47" cy="88.53" r="1.65" transform="translate(76.42 327.1) rotate(-54.56)"/><path class="cls-20" d="M399.08,63.84c-2.17,1.85-3.59,2.61-5.57,1.58,2.35,2.12.85,4.08,0,6.11,1.25-1.57,2.9-3.16,5.11-2.66C397.43,67.36,398.25,66,399.08,63.84Z" transform="translate(-1.64 -1.31)"/><path class="cls-20" d="M365.85,80.51c-.87.74-1.43,1-2.22.63.94.85.34,1.63,0,2.44a2.11,2.11,0,0,1,2-1.06C365.2,81.91,365.52,81.36,365.85,80.51Z" transform="translate(-1.64 -1.31)"/><path class="cls-20" d="M379.44,99.68c-.54.46-.89.65-1.38.39.59.53.21,1,0,1.52a1.31,1.31,0,0,1,1.27-.66C379,100.56,379.24,100.22,379.44,99.68Z" transform="translate(-1.64 -1.31)"/><path class="cls-20" d="M354.51,82.56c-.94.8-1.56,1.13-2.41.69,1,.92.37,1.77,0,2.65a2.29,2.29,0,0,1,2.21-1.15C353.79,84.08,354.15,83.49,354.51,82.56Z" transform="translate(-1.64 -1.31)"/><path class="cls-20" d="M375.77,64.82c-.59.5-1,.71-1.51.43.64.58.23,1.11,0,1.66a1.44,1.44,0,0,1,1.39-.72C375.32,65.78,375.55,65.41,375.77,64.82Z" transform="translate(-1.64 -1.31)"/><path class="cls-20" d="M419.47,173.9a1.22,1.22,0,0,1-.06-.33c0-1.22.76-2.43,1.62-3.7a7,7,0,0,0,1.22-2.29,1.22,1.22,0,0,1,.84-1.28l35.79-11.63a3.64,3.64,0,0,1,2-.08,5,5,0,1,1,4.33,7.23,18,18,0,0,1,2.43,4.87,21.8,21.8,0,0,1,1,6.36,10.75,10.75,0,0,0,.55,3.17h0c1,3.2,3.5,6.25,6.1,9.47,3.24,4,6.9,8.56,8.85,14.55a28.8,28.8,0,0,1,1.32,6.78,1.22,1.22,0,0,1-2.21.79,18.56,18.56,0,0,0-18.35-6.6c-9.61,1.76-15.7-5.82-18.2-13.51h0a23.11,23.11,0,0,1-1.13-10.08,7.24,7.24,0,0,0-.26-3.35c-.87-2.67-3.22-4.6-5.2-5.81L421,174.69a1.22,1.22,0,0,1-1.54-.78Z" transform="translate(-1.64 -1.31)"/><path class="cls-70" d="M459.86,158.46s7.38,3.76,7.57,14.61,15.58,17.18,16.82,34A19.93,19.93,0,0,0,464.69,200c-12.87,2.36-19.15-13.93-17.9-22.21s-9.35-12-9.35-12Z" transform="translate(-1.64 -1.31)"/><path class="cls-71" d="M464.75,173.9c0-7.13-3.38-12.79-5.4-14.25" transform="translate(-1.64 -1.31)"/><path class="cls-72" d="M460.77,160.49a2.45,2.45,0,0,0-1.51-4.65l-35.79,11.63c.16,1.67-2.9,4.38-2.83,6.07Z" transform="translate(-1.64 -1.31)"/><circle class="cls-73" cx="465.36" cy="156.81" r="3.79" transform="translate(-27.32 150.16) rotate(-18)"/><path class="cls-20" d="M464.85,181.92c-.51-2.47-.5-3.79-1-6.26-.84-3.42-4.75-4.47-7.78-3.58h0c-3,1-3.84,4.36-3.26,7.17.51,2.47.5,3.79,1,6.26.84,3.42,4.75,4.47,7.78,3.58h0C464.62,188.11,465.42,184.73,464.85,181.92Zm-9.72-4.3a3.14,3.14,0,1,1,6-1.94,3.63,3.63,0,0,1-2.42,4.09A2.74,2.74,0,0,1,455.13,177.63Zm1.37,7.88a3.63,3.63,0,0,1,2.42-4.09,2.74,2.74,0,0,1,3.56,2.15,3.14,3.14,0,1,1-6,1.94Z" transform="translate(-1.64 -1.31)"/><path class="cls-20" d="M450.88,178.32h0a1,1,0,0,1,.64-1.24l.69-.22a1,1,0,0,1,1.24.63h0a1.06,1.06,0,0,1-.69,1.26l-.69.22A.93.93,0,0,1,450.88,178.32Z" transform="translate(-1.64 -1.31)"/><path class="cls-20" d="M452.49,187h0a1.09,1.09,0,0,1,.72-1.27l.69-.22a.9.9,0,0,1,1.16.66h0a1,1,0,0,1-.67,1.25l-.69.22A.94.94,0,0,1,452.49,187Z" transform="translate(-1.64 -1.31)"/><path class="cls-20" d="M451.73,182.89h0a1.23,1.23,0,0,1,.8-1.3l.69-.22a.81.81,0,0,1,1.08.69h0a1.23,1.23,0,0,1-.8,1.3l-.69.22A.81.81,0,0,1,451.73,182.89Z" transform="translate(-1.64 -1.31)"/><path class="cls-20" d="M361.09,397.65c.59-.43,1.22-.84,1.87-1.22a22.87,22.87,0,0,1,5.31-2.28l1.08-.28c.72-.17,1.46-.3,2.2-.4l1.1-.12c.73-.06,1.48-.09,2.21-.08s1.48.05,2.2.13,1.46.19,2.17.34l1,.22,1,.26.55-.9a5.7,5.7,0,0,1,.63-.85,5.77,5.77,0,0,1,9,.44,5.66,5.66,0,0,1,1,2.21l.19.91.91.2a8.75,8.75,0,0,1,6.9,8.64l0,2.84,3.48-2.53.84,1.16c6,8.22,5.87,16.43-.29,20.92-2,1.47-2.33,5.07-2.66,8.87-.41,4.74-.83,9.64-4.54,12.33l-1.21.84,0-.06-1,.35c-3.34,1.18-7.24.28-11-.58s-7.24-1.66-9.26-.19c-6.17,4.48-14,2.07-20-6.14l-.84-1.16,3.14-2.29L355,438.15l-.5-.3-2.12-1.36-.8-.79a8.88,8.88,0,0,1-.93-1.08,8.78,8.78,0,0,1-1.63-6.06l.09-.92-.8-.46a5.68,5.68,0,0,1-1.78-1.6,5.82,5.82,0,0,1,.36-7.26,5.93,5.93,0,0,1,.91-.83,5.78,5.78,0,0,1,2.61-1l1.18-.16.06-1.19a23.11,23.11,0,0,1,.7-4.6c.09-.36.19-.71.3-1.06a22.77,22.77,0,0,1,8.42-11.77Z" transform="translate(-1.64 -1.31)"/><path class="cls-74" d="M347.69,424.74a4.36,4.36,0,0,0,6.09,1,4.32,4.32,0,0,0,.82-.81,2.3,2.3,0,0,1-1.72-.48l0,0a2.79,2.79,0,0,1-4-3.75c-.45-.06-.26-1-.9-1.41A4.36,4.36,0,0,0,347.69,424.74Z" transform="translate(-1.64 -1.31)"/><circle class="cls-75" cx="357.75" cy="429.45" r="7.35" transform="matrix(0.81, -0.59, 0.59, 0.81, -185.87, 291.53)"/><circle class="cls-76" cx="357.75" cy="429.45" r="5.06" transform="translate(-185.87 291.53) rotate(-36.06)"/><circle class="cls-77" cx="357.75" cy="429.45" r="3.28" transform="translate(-185.87 291.53) rotate(-36.06)"/><path class="cls-74" d="M383.2,398.89a4.36,4.36,0,0,0,6.09,1,4.32,4.32,0,0,0,.82-.81,2.3,2.3,0,0,1-1.72-.48l0,0a2.79,2.79,0,0,1-4-3.75c-.45-.06-.26-1-.9-1.41A4.36,4.36,0,0,0,383.2,398.89Z" transform="translate(-1.64 -1.31)"/><circle class="cls-75" cx="391.6" cy="404.81" r="7.35" transform="translate(-164.88 306.73) rotate(-36.06)"/><circle class="cls-76" cx="391.6" cy="404.81" r="5.06" transform="translate(-164.88 306.73) rotate(-36.06)"/><circle class="cls-77" cx="391.6" cy="404.81" r="3.28" transform="translate(-164.88 306.73) rotate(-36.06)"/><circle class="cls-78" cx="391.6" cy="404.81" r="7.35" transform="translate(-164.88 306.73) rotate(-36.06)"/><path class="cls-74" d="M384.36,394.83a2.79,2.79,0,1,1,4,3.73,2.3,2.3,0,0,0,1.72.48,4.35,4.35,0,0,0-6.64-5.62C384.1,393.84,383.92,394.78,384.36,394.83Z" transform="translate(-1.64 -1.31)"/><path class="cls-74" d="M348.86,420.68a2.79,2.79,0,1,1,4,3.73,2.3,2.3,0,0,0,1.72.48,4.35,4.35,0,0,0-6.64-5.62C348.6,419.69,348.41,420.63,348.86,420.68Z" transform="translate(-1.64 -1.31)"/><circle class="cls-79" cx="374.58" cy="416.22" r="21.53" transform="translate(-174.86 298.9) rotate(-36.06)"/><path class="cls-80" d="M363.21,400.61a21.53,21.53,0,0,1,29.42,3.88q-.31-.47-.64-.93a21.53,21.53,0,0,0-34.8,25.34q.32.44.66.85A21.53,21.53,0,0,1,363.21,400.61Z" transform="translate(-1.64 -1.31)"/><circle class="cls-75" cx="370.31" cy="409.91" r="9.45" transform="translate(-171.97 295.17) rotate(-36.06)"/><rect class="cls-75" x="359.18" y="410.23" width="31.5" height="12.97" rx="4.02" ry="4.02" transform="translate(921.68 531.59) rotate(143.94)"/><path class="cls-81" d="M374.55,436.7a18.85,18.85,0,0,0,12,.38c6.33-2,9.24-4.39,12.87-8.33,0,0-9.24,4.39-12.17,3.93,0,0,12-4.87,13.12-7,0,0,1.93-2.7,2.16-4.17,0,0-10.8,6.57-12.27,6.34,0,0,10-5.95,9.57-8.27a10.58,10.58,0,0,0-1-3.16s-4.71,6-7,6.41l-2.32.39Z" transform="translate(-1.64 -1.31)"/><circle class="cls-82" cx="367.53" cy="422" r="4.43" transform="translate(-179.61 295.85) rotate(-36.06)"/><circle class="cls-83" cx="367.53" cy="422" r="3.71" transform="translate(-179.61 295.85) rotate(-36.06)"/><circle class="cls-84" cx="367.53" cy="422" r="3.07" transform="translate(-179.61 295.85) rotate(-36.06)"/><circle class="cls-85" cx="367.53" cy="422" r="2.59" transform="translate(-179.61 295.85) rotate(-36.06)"/><path class="cls-86" d="M366.11,421.8a1.49,1.49,0,0,1,2.95.46" transform="translate(-1.64 -1.31)"/><circle class="cls-87" cx="367.55" cy="424.48" r="1.05" transform="translate(-181.07 296.34) rotate(-36.06)"/><circle class="cls-85" cx="368.94" cy="411.55" r="0.53" transform="translate(-173.2 294.69) rotate(-36.06)"/><circle class="cls-85" cx="371.49" cy="409.7" r="0.53" transform="translate(-171.62 295.83) rotate(-36.06)"/><rect class="cls-85" x="364.18" y="406.78" width="7.33" height="1.47" rx="0.6" ry="0.6" transform="translate(903.44 519.19) rotate(143.95)"/><rect class="cls-78" x="356.9" y="421.62" width="41.2" height="1.29" transform="translate(929.59 540.13) rotate(143.94)"/><path class="cls-88" d="M363.49,436.11s1.31-2.37-.92-2.93-7.3,3.46-7.3,3.46S361.85,440.86,363.49,436.11Z" transform="translate(-1.64 -1.31)"/><path class="cls-88" d="M363.9,434.21s2.39-1.27.83-3-8-1.09-8-1.09S359.92,437.29,363.9,434.21Z" transform="translate(-1.64 -1.31)"/><path class="cls-70" d="M387,412.22,379,418c-.72.53-4.75-6.21,0-9.68S387,412.22,387,412.22Z" transform="translate(-1.64 -1.31)"/><rect class="cls-88" x="359.75" y="421.88" width="41.2" height="8.62" transform="matrix(-0.81, 0.59, -0.59, -0.81, 937.06, 545.54)"/><path class="cls-70" d="M380.67,415.7S372.31,429.25,369.9,440l-.87,0c-.69.07,1.46-9,10.4-24.53C388,400.6,380.67,415.7,380.67,415.7Z" transform="translate(-1.64 -1.31)"/><path class="cls-74" d="M355.8,441.84c4.89,6.72,11.92,10.26,18,5.83,5.29-3.86,16.26,4.12,22.4-.34l0,0,0,.05,0,0c6.13-4.47,1.91-17.35,7.2-21.21,6.09-4.43,4.87-12.21,0-18.92l-23.84,17.36,0-.05Z" transform="translate(-1.64 -1.31)"/><path class="cls-70" d="M358.53,439.85c4.33,5.95,10.55,9.09,15.94,5.16,4.69-3.41,14.4,3.65,19.83-.3l0,0,0,0,0,0c5.43-4,1.69-15.36,6.38-18.78,5.39-3.92,4.31-10.81,0-16.75l-21.1,15.36,0,0Z" transform="translate(-1.64 -1.31)"/><path class="cls-20" d="M383.52,437.26a4.38,4.38,0,1,0,3.42-6.95,3.82,3.82,0,0,0-.05-.46c-.18-1-.69-1.72-1.14-1.63s-.67.95-.49,1.93a3.79,3.79,0,0,0,.13.5l-.17.07,0-.07c-.59-.81-1.37-1.25-1.74-1s-.19,1.14.4,2l0,.06-.13.15a3.79,3.79,0,0,0-.44-.28c-.88-.48-1.77-.53-2-.13s.32,1.12,1.2,1.59a3.82,3.82,0,0,0,.42.19A4.37,4.37,0,0,0,383.52,437.26Zm3.26-4.74c.3-.51,1.35-.45,2.35.14s1.55,1.48,1.25,2-1.35.45-2.35-.14S386.48,433,386.78,432.52Zm-1.7,1.23c.58-.13,1.26.68,1.51,1.8s0,2.15-.59,2.28-1.26-.68-1.51-1.8S384.5,433.88,385.08,433.75Z" transform="translate(-1.64 -1.31)"/><path class="cls-20" d="M379.38,440.59c.25.35.92.29,1.49-.12a.31.31,0,1,1,.59.09c.41.57,1,.83,1.38.58s.29-.92-.12-1.49a1.79,1.79,0,0,0-.67-.58l.31-2a.64.64,0,0,0-1.26-.2l-.31,2a1.79,1.79,0,0,0-.82.34C379.39,439.63,379.13,440.24,379.38,440.59Z" transform="translate(-1.64 -1.31)"/><path class="cls-20" d="M375.68,435.5c-.25-.35,0-1,.58-1.38a.31.31,0,1,0,.09-.59c-.41-.57-.47-1.24-.12-1.49s1,0,1.38.58a1.79,1.79,0,0,1,.34.82l2,.31a.64.64,0,0,1-.2,1.26l-2-.31a1.79,1.79,0,0,1-.58.68C376.6,435.79,375.93,435.84,375.68,435.5Z" transform="translate(-1.64 -1.31)"/><path class="cls-20" d="M395,429.22c.25.35,0,1-.58,1.38a.31.31,0,1,0-.09.59c.41.57.47,1.24.12,1.49s-1,0-1.38-.58a1.79,1.79,0,0,1-.34-.82l-2-.31a.64.64,0,0,1,.2-1.26l2,.31a1.79,1.79,0,0,1,.58-.68C394.11,428.93,394.78,428.87,395,429.22Z" transform="translate(-1.64 -1.31)"/><path class="cls-20" d="M391.33,424.13c-.25-.35-.92-.29-1.49.12a.31.31,0,1,1-.59-.09c-.41-.57-1-.83-1.38-.58s-.29.92.12,1.49a1.79,1.79,0,0,0,.67.58l-.31,2a.64.64,0,0,0,1.26.2l.31-2a1.79,1.79,0,0,0,.82-.34C391.32,425.09,391.58,424.47,391.33,424.13Z" transform="translate(-1.64 -1.31)"/><polygon class="cls-20" points="364.97 407.55 363.22 406.29 363.49 408.62 364.97 407.55"/><polygon class="cls-20" points="369.39 404.33 367.63 403.08 367.91 405.41 369.39 404.33"/><path class="cls-20" d="M159.16,96.18c-2.46,1.42-11.76,5.76-28.16,2a.78.78,0,0,0-.57.08.77.77,0,0,0-.23.2,14.35,14.35,0,0,1-1.12,1.27.78.78,0,0,0-.1,1,5.26,5.26,0,0,1,.62,1.32,4.08,4.08,0,0,1-.67,3.94,3.48,3.48,0,0,1-.85.73,2.19,2.19,0,0,1-.35.17l-.13.06a.79.79,0,0,0-.16.12,10.4,10.4,0,0,1-1.81,1.45l-.25.15a5.76,5.76,0,0,1-6.31,0,4.65,4.65,0,0,1-2.14-2.78.78.78,0,0,0-.8-.6c-3.61.17-6.14-2.5-7.07-4.11L109,101l-.09-.15a20.71,20.71,0,0,1-2.66-9,.78.78,0,0,0-.91-.72l-.19,0a6.36,6.36,0,0,1-.78.09c-2.3.14-9.24-1.18-13.67-8.85-.14-.25-.27-.5-.39-.75l-.09-.2c-.09-.22-.16-.39-.22-.56l-.08-.25c-.06-.2-.11-.36-.15-.51l-.06-.28c0-.18-.06-.34-.09-.5s0-.19,0-.29,0-.32,0-.47,0-.2,0-.28,0-.33,0-.5,0-.17,0-.23,0-.41.08-.62.11-.56.17-.79l0-.13c.05-.18.11-.37.17-.55l.05-.14c.07-.2.13-.35.2-.5l.1-.22.2-.41L90.7,74l.22-.39.13-.21.24-.38.11-.16.33-.47.07-.1c.22-.29.5-.64.8-1l.08-.08.35-.38.56-.57.44-.41.44-.39.43-.37.77-.62.51-.38a.78.78,0,0,0,.27-.36,7.06,7.06,0,0,1,1.31-2.14.78.78,0,0,0,.09-.9,2.22,2.22,0,0,1-.22-1.6,2.43,2.43,0,0,1,1.19-1.61A6.62,6.62,0,0,1,101.9,61c.46,0,.92,0,1.33-.08l.32-.05.2,0,.17-.07a.79.79,0,0,0,.2-.16l.09-.11c.14-.18.23-.3.32-.43l.08-.12.26-.4.11-.18a5.7,5.7,0,0,1,1.83-2.14A2.44,2.44,0,0,1,109,57a2.21,2.21,0,0,1,1.39,2,2.79,2.79,0,0,1-.1.91.78.78,0,0,0,.57,1c3.78.89,7.2,3.83,9.91,8.52l0,.08.12.21c1.64,2.83,1.67,6.34.08,10.14a1.58,1.58,0,0,1-.48.63.78.78,0,0,0-.22.27c-.14.29-.29.56-.43.81a.78.78,0,0,0,.26,1,52,52,0,0,1,5.91,4.67c1,.84,1.66,1.45,2,1.68a4,4,0,0,0,2.13.35.79.79,0,0,0,.34-.1h0a141.75,141.75,0,0,0,14.8-10.35,54.47,54.47,0,0,1,6.73-4.94c2.87-1.65,4.87-1.54,6,.34.59,1,.16,2.81-1.18,4.93a.78.78,0,0,0,.79,1.19,4.05,4.05,0,0,1,2.45.18,2.85,2.85,0,0,1,1.64,1.87c.45,1.42-.79,3.43-3.47,5.68a.78.78,0,0,0,.43,1.38,4.22,4.22,0,0,1,2.51.88,2.86,2.86,0,0,1,1.05,2.26C162.34,93.74,161.28,95,159.16,96.18Z" transform="translate(-1.64 -1.31)"/><path class="cls-89" d="M110.25,100s2,3.54,5.7,3.32,14.5-2.7,15.37-12.66c0,0-2.54.52-4.06-.49s-6.22-5.86-10-7.47c0,0,5.45-6.93,2.18-12.6s-9.08-10.82-16.88-6.32-3.92,7.93-3.92,7.93l10.5,10S105.34,91.54,110.25,100Z" transform="translate(-1.64 -1.31)"/><path class="cls-90" d="M115,77.94c-.09-1.88-1.27-2.2-1.27-2.2l-3.54,2-1.57,3.6.78.76a25.31,25.31,0,0,0-1.26,6.67c1.07.27,1.78-.25,4.44-3.62S115.06,79.94,115,77.94Z" transform="translate(-1.64 -1.31)"/><path class="cls-91" d="M100.15,70.25s1.08-2.9,5.91-5.69,7.16-.34,8.81,2.51-.16,7.69-2.92,9.28S100.45,72.36,100.15,70.25Z" transform="translate(-1.64 -1.31)"/><path class="cls-90" d="M106.06,64.56c-4.83,2.79-5.91,5.69-5.91,5.69a1.09,1.09,0,0,0,0,.19,15.24,15.24,0,0,1,5.5-4.92c4.83-2.79,7.16-.34,8.81,2.51a6.29,6.29,0,0,1,.25,4.93,6.76,6.76,0,0,0,.11-5.89C113.23,64.22,110.89,61.77,106.06,64.56Z" transform="translate(-1.64 -1.31)"/><path class="cls-89" d="M128.8,92.07A152,152,0,0,0,146.41,80c7.69-6.33,9.51-6.44,10.33-5s-5.42,13.52-27.12,18.49C129.62,93.49,128.2,94.31,128.8,92.07Z" transform="translate(-1.64 -1.31)"/><path class="cls-8" d="M119.91,102.34s-3.41,2.68,0,4.95,6.77-1.78,6.77-1.78-1.82,1.76-2.74.16,1-2,1.82-1.76.7,2.43,2,1,0-4.95-2.76-4.78A9.77,9.77,0,0,0,119.91,102.34Z" transform="translate(-1.64 -1.31)"/><g class="cls-92"><path class="cls-93" d="M120.72,103.76a9.77,9.77,0,0,1,5.09-2.23,2.85,2.85,0,0,1,2.29.92,3.1,3.1,0,0,0-3.1-2.34,9.77,9.77,0,0,0-5.09,2.23s-2.88,2.27-.65,4.41C119,105.14,120.72,103.76,120.72,103.76Z" transform="translate(-1.64 -1.31)"/><path class="cls-94" d="M124.54,106.24a1.46,1.46,0,0,0,.24.85l0,0a8.71,8.71,0,0,0,1.9-1.62S125.48,106.68,124.54,106.24Z" transform="translate(-1.64 -1.31)"/></g><path class="cls-95" d="M129.32,93.46a152,152,0,0,0,19.81-7.95C158,81,159.8,81.29,160.3,82.85s-8.23,12-30.49,12.17C129.81,95,128.25,95.51,129.32,93.46Z" transform="translate(-1.64 -1.31)"/><path class="cls-89" d="M128,94.14A152,152,0,0,0,149.28,92c9.78-1.85,11.44-1.07,11.47.57s-11.26,9.25-32.67,3.17C128.08,95.78,126.44,95.81,128,94.14Z" transform="translate(-1.64 -1.31)"/><path class="cls-90" d="M108.17,75.16S102,68.74,98.6,68.4c-.88,1.23.67,2,.67,2,.52,2.54,10.5,10,13.33,8.37a5.74,5.74,0,0,0,2-2.21C113.19,74.06,112.59,73.51,108.17,75.16Z" transform="translate(-1.64 -1.31)"/><path class="cls-95" d="M109.53,98.58a17.7,17.7,0,0,0,.88,1.75s2,3.54,5.7,3.32a20.25,20.25,0,0,0,11.37-4.59A74.19,74.19,0,0,1,109.53,98.58Z" transform="translate(-1.64 -1.31)"/><path class="cls-96" d="M98.6,68.4S88,74.54,92.06,81.63s10.39,8.18,12.22,8.07,1.83-.93,1.83-.93-.82-.59.18-2.12a13.14,13.14,0,0,1,2.57-2.73s-1.34,4.86.08,4,6.87-7.75,5.23-10.58-2-3.54-6.71-1.8C107.46,75.57,101.54,68.59,98.6,68.4Z" transform="translate(-1.64 -1.31)"/><path class="cls-8" d="M127.55,99a12,12,0,0,0,3.1-4.43c-7.4,1.55-17,.52-22.41-.3A18.66,18.66,0,0,0,110,99.54C115.58,100.08,123,99.48,127.55,99Z" transform="translate(-1.64 -1.31)"/><path class="cls-97" d="M116.16,87.56s-3.41,2.91-1.36,6.46,2.86,5,7.44,2.32l5.34-3.08S122.73,86.6,116.16,87.56Z" transform="translate(-1.64 -1.31)"/><path class="cls-89" d="M115.83,86.8s-3.13,2.75-1.09,6.3,2.86,5,7.12,2.51l5-2.86S122,86.06,115.83,86.8Z" transform="translate(-1.64 -1.31)"/><path class="cls-90" d="M117.06,88.93c4-.48,7.42,2.14,9.34,4.06l.42-.24s-4.8-6.68-11-5.94c0,0-3.13,2.75-1.09,6.3.37.64.7,1.21,1,1.7C114.19,91.46,117.06,88.93,117.06,88.93Z" transform="translate(-1.64 -1.31)"/><ellipse class="cls-95" cx="108.98" cy="69.81" rx="3.44" ry="4.51" transform="translate(-22.05 66.16) rotate(-31.61)"/><ellipse class="cls-98" cx="108.84" cy="69.57" rx="2.46" ry="3.61" transform="matrix(0.85, -0.52, 0.52, 0.85, -21.95, 66.05)"/><path class="cls-99" d="M110.72,68.41c.78,1.27.71,2.74-.15,3.27a1.57,1.57,0,0,1-2.51-.57" transform="translate(-1.64 -1.31)"/><ellipse class="cls-91" cx="106.85" cy="68.68" rx="1.23" ry="1.8" transform="translate(-21.78 64.87) rotate(-31.61)"/><path class="cls-8" d="M109.34,76.37c-2.94-.19-5.67,3.27-5.67,3.27-4.65-2.79-5.49-7.79-5.49-11-1.91,1.22-9.73,6.73-6.13,13,4.09,7.09,10.39,8.18,12.22,8.07a7.73,7.73,0,0,0,1.65-.29.83.83,0,0,0,.43-1.33,1.11,1.11,0,0,1-.07-1.44,19.74,19.74,0,0,1,2.86-3.23c1.41-1.51,0,0,0,0-.07.36-1.57,5.31-.22,4.53a15.16,15.16,0,0,0,3.25-3.73C115.2,77.83,112,76.54,109.34,76.37Z" transform="translate(-1.64 -1.31)"/><path class="cls-100" d="M94.51,73.6s-2,3.05-1.91,4.88,2.56,6.08,4.8,6.68c0,0-4.28-4.14-2.67-7.91S94.51,73.6,94.51,73.6Z" transform="translate(-1.64 -1.31)"/><path class="cls-90" d="M119.62,79.21c1-2.48,1.72-5.8,0-8.77-2.07-3.58-5.15-6.95-9.1-7.81a5.64,5.64,0,0,1,1.71.74C116.54,66.22,120,70.42,119.62,79.21Z" transform="translate(-1.64 -1.31)"/><path class="cls-90" d="M132.66,92.21s18.73-11.76,20-14.4c0,0,2.43-2.35,2.83-1.64s-3.32,5.7-6.87,7.75S136.61,90.87,132.66,92.21Z" transform="translate(-1.64 -1.31)"/><path class="cls-101" d="M132.07,94s21.12-6.53,23.07-8.75c0,0,2.95-1.64,3.16-.85s-4.68,4.65-8.63,5.71S136.23,93.76,132.07,94Z" transform="translate(-1.64 -1.31)"/><path class="cls-90" d="M131.7,96.38s22.06-1.53,24.46-3.24c0,0,3.25-.92,3.27-.1s-5.62,3.46-9.71,3.59S135.81,97.07,131.7,96.38Z" transform="translate(-1.64 -1.31)"/><ellipse class="cls-102" cx="95.03" cy="76.13" rx="1.64" ry="0.82" transform="matrix(0.5, -0.87, 0.87, 0.5, -20.06, 119.05)"/><path class="cls-95" d="M102.36,63.87s-3.55,1.21-3.21-.41,4.52-.34,5.88-1.62,2-4,3.4-3.38-.8,3.52-3.39,4.12A9.31,9.31,0,0,1,102.36,63.87Z" transform="translate(-1.64 -1.31)"/><path class="cls-103" d="M106.55,59.7A10.9,10.9,0,0,1,105,61.84a2.84,2.84,0,0,1-1.61.59l-.11.17c-.67.94-2.58,1.13-4,1.52.73.52,3-.25,3-.25a6.41,6.41,0,0,0,.84-.28l.27-.26A5.7,5.7,0,0,0,106.55,59.7Z" transform="translate(-1.64 -1.31)"/><ellipse class="cls-95" cx="116.37" cy="74.23" rx="1.43" ry="0.94" transform="translate(-23.16 66.82) rotate(-30)"/><path class="cls-20" d="M63.08,346.33l-6.69-33.6a1.88,1.88,0,0,0,.34-1.39,1.57,1.57,0,0,0-.13-.43l-.79-1.71a1.87,1.87,0,0,0-1-1.11L53,298.81a1.79,1.79,0,0,0,.09-.88,1.57,1.57,0,0,0-.13-.43l-.57-1.23a1.79,1.79,0,0,0-1.48-1.19l-1.29-6.5a2.55,2.55,0,0,0-1.68-1.91,2.51,2.51,0,0,0-1.2-.11l-3,.46a2.54,2.54,0,0,0-2.15,2.77l.67,6.59A1.79,1.79,0,0,0,41.14,298L41,299.3a1.57,1.57,0,0,0,0,.44,1.79,1.79,0,0,0,.34.82l1,9.42a1.87,1.87,0,0,0-.63,1.35l-.25,1.87a1.58,1.58,0,0,0,0,.44,1.88,1.88,0,0,0,.73,1.23L45.6,349v.1a2,2,0,0,0,2.31,1.7l.12,0a8,8,0,0,0,13.24-2l.12,0a2,2,0,0,0,1.73-2,2.06,2.06,0,0,0,0-.33Z" transform="translate(-1.64 -1.31)"/><path class="cls-104" d="M56.77,325.94l-5.49-27.56a1.67,1.67,0,0,0-1.88-1.32l-5.2.78a1.67,1.67,0,0,0-1.41,1.82l2.86,28Z" transform="translate(-1.64 -1.31)"/><path class="cls-104" d="M51.24,304.95,48,288.89a1,1,0,0,0-1.1-.77l-3,.46a1,1,0,0,0-.82,1.06l1.66,16.29Z" transform="translate(-1.64 -1.31)"/><circle class="cls-105" cx="54" cy="345.39" r="6.44" transform="translate(-52.38 10.55) rotate(-8.55)"/><path class="cls-20" d="M51.48,350a4.54,4.54,0,0,1-.62-.65,4.53,4.53,0,0,0,5.76-6.75,4.53,4.53,0,1,1-5.14,7.4Z" transform="translate(-1.64 -1.31)"/><path class="cls-104" d="M61.54,346.64,54.61,311.8a2.62,2.62,0,0,0-3-2.08l-5.88.88a2.62,2.62,0,0,0-2.21,2.85l3.61,35.34a.46.46,0,0,0,.52.4l13.48-2A.46.46,0,0,0,61.54,346.64Z" transform="translate(-1.64 -1.31)"/><path class="cls-106" d="M48,305.43c-1.19-7.93-2.18-14.46-2.59-17.09l1.5-.23a1,1,0,0,1,1.1.77l3.2,16.06Z" transform="translate(-1.64 -1.31)"/><path class="cls-106" d="M51.23,326.77c-1.53-10.2-3.21-21.43-4.4-29.33l2.57-.39a1.67,1.67,0,0,1,1.88,1.32l5.49,27.56Z" transform="translate(-1.64 -1.31)"/><path class="cls-106" d="M54.61,311.8l6.94,34.84a.46.46,0,0,1-.38.54l-6.74,1c-1.07-7.18-3.57-23.89-5.69-38l2.91-.44A2.62,2.62,0,0,1,54.61,311.8Z" transform="translate(-1.64 -1.31)"/><path class="cls-107" d="M55.18,311.58l-.84-1.82a.29.29,0,0,0-.33-.24l-10.55,1.59a.29.29,0,0,0-.24.33l-.27,2a.32.32,0,0,0,.36.27l11.61-1.74A.32.32,0,0,0,55.18,311.58Z" transform="translate(-1.64 -1.31)"/><path class="cls-107" d="M51.5,298.16l-.62-1.34a.21.21,0,0,0-.24-.18l-7.75,1.17a.21.21,0,0,0-.18.24l-.2,1.46a.23.23,0,0,0,.27.2l8.53-1.28A.23.23,0,0,0,51.5,298.16Z" transform="translate(-1.64 -1.31)"/></g></g></svg>